<svg width="28px" height="28px" viewBox="0 0 28 28" version="1.1" xmlns="http://www.w3.org/2000/svg" xmlns:xlink="http://www.w3.org/1999/xlink">
    <g id="pencil-paper-test" stroke="none" stroke-width="1" fill="none" fill-rule="evenodd">
        <g id="Group-2" transform="translate(6.000000, 4.000000)" stroke="#4A90E2">
            <path d="M0.55859375,14.553122 L15.6141481,14.553122 L15.6141481,13.5407118 C15.6141481,12.9779153 15.1639145,12.5283016 14.6036805,12.5283016 L12.9382224,12.5283016 L12.9382224,5.94345293 C12.9382224,3.2760155 10.7624288,1.10120253 8.08637093,1.10120253 C5.41041711,1.10120253 3.23451948,3.27151197 3.23451948,5.94345293 L3.23451948,12.5283016 L1.56906132,12.5283016 C1.00702969,12.5283016 0.55859375,12.9787177 0.55859375,13.5407118 L0.55859375,14.553122 Z" id="Rectangle-14"></path>
            <path d="M5.74493592,16.0613954 L10.4278059,16.0613954 C10.4278059,17.3607215 9.37950978,18.4140335 8.08637093,18.4140335 C6.79323208,18.4140335 5.74493592,17.3607215 5.74493592,16.0613954 Z" id="Oval-43"></path>
        </g>
    </g>
</svg>