<?xml version="1.0" encoding="UTF-8"?>
<svg width="21px" height="21px" viewBox="0 0 21 21" version="1.1" xmlns="http://www.w3.org/2000/svg" xmlns:xlink="http://www.w3.org/1999/xlink">
    <!-- Generator: Sketch 51.2 (57519) - http://www.bohemiancoding.com/sketch -->
    <title>Slice 2 Copy 4</title>
    <desc>Created with Sketch.</desc>
    <defs></defs>
    <g id="transcription" stroke="none" stroke-width="1" fill="none" fill-rule="evenodd">
        <g id="Time" transform="translate(3.000000, 3.000000)">
            <rect id="Rectangle-path" x="0" y="0" width="15" height="15"></rect>
            <path d="M8.8325,12.9225 C6.74004308,13.4345449 4.53968731,12.6969648 3.17857651,11.0272512 C1.81746572,9.35753769 1.5385112,7.05367694 2.46178903,5.10736658 C3.38506685,3.16105623 5.34580378,1.91964548 7.5,1.9175 C10.2572836,1.92914747 12.5973356,3.94277925 13.02,6.6675 C13.0298642,6.73318015 13.0654584,6.79223563 13.1189276,6.83163398 C13.1723968,6.87103233 13.2393457,6.88753495 13.305,6.8775 C13.3706801,6.86763579 13.4297356,6.8320416 13.469134,6.77857241 C13.5085323,6.72510321 13.5250349,6.65815428 13.515,6.5925 C13.0314141,3.38755353 10.1196076,1.12481087 6.89451311,1.44776991 C3.66941859,1.77072896 1.26411106,4.56592424 1.42563756,7.80312155 C1.58716407,11.0403189 4.25877536,13.582191 7.5,13.5825 C7.98930212,13.5829389 8.47691106,13.5250301 8.9525,13.41 C9.08636259,13.3767728 9.16802637,13.2414123 9.135,13.1075 C9.11959385,13.04275 9.07900409,12.9868163 9.02222334,12.9520909 C8.96544259,12.9173655 8.89715874,12.9067153 8.8325,12.9225 Z" id="Shape" fill="#0064FF" fill-rule="nonzero"></path>
            <path d="M7.96,10.7275 C8.09807119,10.7275 8.21,10.6155712 8.21,10.4775 C8.21,10.3394288 8.09807119,10.2275 7.96,10.2275 L7.04,10.2275 C6.90192881,10.2275 6.79,10.3394288 6.79,10.4775 C6.79,10.6155712 6.90192881,10.7275 7.04,10.7275 L7.96,10.7275 Z" id="Shape" fill="#0064FF" fill-rule="nonzero"></path>
            <path d="M8.8475,11.965 C8.49049656,12.0712303 8.12202252,12.1341814 7.75,12.1525 L7.75,11.7975 C7.75,11.6594288 7.63807119,11.5475 7.5,11.5475 C7.36192881,11.5475 7.25,11.6594288 7.25,11.7975 L7.25,12.15 C6.60180561,12.1155585 5.96809625,11.9452065 5.39,11.65 L5.5675,11.345 C5.61676484,11.2675027 5.61957693,11.1692345 5.57482447,11.0890468 C5.53007201,11.0088591 5.44495963,10.9596612 5.35313748,10.960904 C5.26131533,10.9621469 5.17756571,11.0136304 5.135,11.095 L4.9575,11.4 C4.41526533,11.0452614 3.95223858,10.5822347 3.5975,10.04 L3.9025,9.8625 C3.9838696,9.81993429 4.03535312,9.73618467 4.03659597,9.64436252 C4.03783882,9.55254037 3.98864091,9.46742799 3.9084532,9.42267553 C3.8282655,9.37792307 3.72999727,9.38073516 3.6525,9.43 L3.3475,9.6075 C3.05229345,9.02940375 2.88194147,8.39569439 2.8475,7.7475 L3.2,7.7475 C3.33807119,7.7475 3.45,7.63557119 3.45,7.4975 C3.45,7.35942881 3.33807119,7.2475 3.2,7.2475 L2.85,7.2475 C2.88444147,6.59930561 3.05479345,5.96559625 3.35,5.3875 L3.655,5.565 C3.73249727,5.61426484 3.8307655,5.61707693 3.9109532,5.57232447 C3.99114091,5.52757201 4.04033882,5.44245963 4.03909597,5.35063748 C4.03785312,5.25881533 3.9863696,5.17506571 3.905,5.1325 L3.6,4.955 C3.95473858,4.41276533 4.41776533,3.94973858 4.96,3.595 L5.1375,3.9 C5.18006571,3.9813696 5.26381533,4.03285312 5.35563748,4.03409597 C5.44745963,4.03533882 5.53257201,3.98614091 5.57732447,3.9059532 C5.62207693,3.8257655 5.61926484,3.72749727 5.57,3.65 L5.3925,3.345 C5.97059625,3.04979345 6.60430561,2.87944147 7.2525,2.845 L7.2525,3.1975 C7.2525,3.33557119 7.36442881,3.4475 7.5025,3.4475 C7.64057119,3.4475 7.7525,3.33557119 7.7525,3.1975 L7.7525,2.85 C8.40077707,2.88392135 9.034593,3.05430197 9.6125,3.35 L9.435,3.655 C9.38573516,3.73249727 9.38292307,3.8307655 9.42767553,3.9109532 C9.47242799,3.99114091 9.55754037,4.04033882 9.64936252,4.03909597 C9.74118467,4.03785312 9.82493429,3.9863696 9.8675,3.905 L10.045,3.6 C10.5885513,3.95395898 11.0525434,4.41709966 11.4075,4.96 L11.1,5.1375 C11.0186304,5.18006571 10.9671469,5.26381533 10.965904,5.35563748 C10.9646612,5.44745963 11.0138591,5.53257201 11.0940468,5.57732447 C11.1742345,5.62207693 11.2725027,5.61926484 11.35,5.57 L11.6575,5.3925 C11.8571822,5.78097871 12.0002969,6.19601124 12.0825,6.625 C12.0990235,6.7143164 12.1619416,6.78803295 12.2475537,6.81838135 C12.3331657,6.84872975 12.4284652,6.83109935 12.4975537,6.77213135 C12.5666422,6.71316335 12.5990235,6.6218164 12.5825,6.5325 C12.1816437,4.43485079 10.530013,2.80089331 8.42817283,2.42262606 C6.32633271,2.04435881 4.20866088,2.99995657 3.10161793,4.8262298 C1.99457498,6.65250303 2.12694842,8.97202417 3.43457529,10.6604939 C4.74220215,12.3489636 6.95484115,13.0574336 9,12.4425 C9.13154084,12.4027604 9.20635082,12.2643061 9.1675,12.1325 C9.1485651,12.0669838 9.1036871,12.0120467 9.04326636,11.9804202 C8.98284562,11.9487938 8.91212723,11.9432234 8.8475,11.965 Z" id="Shape" fill="#0064FF" fill-rule="nonzero"></path>
            <path d="M7.5,7.1925 C7.33017244,7.1925 7.1925,7.33017244 7.1925,7.5 C7.1925,7.66982756 7.33017244,7.8075 7.5,7.8075 C7.66982756,7.8075 7.8075,7.66982756 7.8075,7.5 C7.8075,7.33017244 7.66982756,7.1925 7.5,7.1925 Z" id="Shape" fill="#0064FF" fill-rule="nonzero"></path>
            <path d="M8.2875,8.365 C8.53264603,8.1440507 8.67332509,7.83001873 8.675,7.5 C8.67287578,7.44798171 8.66702748,7.39618244 8.6575,7.345 L10.27,5.735 C10.4765855,5.56272202 10.5680731,5.28849131 10.5063044,5.02668621 C10.4445357,4.76488112 10.2401189,4.56046431 9.97831379,4.49869559 C9.71650869,4.43692687 9.44227798,4.52841447 9.27,4.735 L7.66,6.3475 C7.60729675,6.336052 7.55381653,6.32853134 7.5,6.325 C7.39313753,6.32638095 7.28703757,6.34322222 7.185,6.375 L5.8425,5.3625 C5.6411216,5.18697799 5.35826635,5.13934504 5.11050889,5.23923235 C4.86275142,5.33911967 4.69202971,5.56961932 4.66870419,5.83573425 C4.64537866,6.10184918 4.77339765,6.35853406 5,6.5 L6.34,7.5 C6.33994759,8.14312157 6.85693084,8.66678994 7.5,8.675 C7.62093993,8.67355869 7.74083969,8.65244958 7.855,8.6125 L9.0025,10.6125 C9.074374,10.7255631 9.2225992,10.7618701 9.33859006,10.6948233 C9.45458093,10.6277766 9.49710043,10.4812126 9.435,10.3625 L8.2875,8.365 Z M9.6175,5.085 C9.67064326,5.03185674 9.74810124,5.01110194 9.82069628,5.03055372 C9.89329132,5.0500055 9.9499945,5.10670868 9.96944628,5.17930372 C9.98889806,5.25189876 9.96814326,5.32935674 9.915,5.3825 L8.465,6.8325 C8.38408681,6.71662096 8.28337904,6.61591319 8.1675,6.535 L9.6175,5.085 Z M6.455,6.975 L5.29,6.0975 C5.22158863,6.05616518 5.18257376,5.97957833 5.18935772,5.89993751 C5.19614168,5.82029669 5.24754809,5.7514121 5.32196506,5.72224367 C5.39638203,5.69307525 5.48090521,5.70868097 5.54,5.7625 L6.705,6.64 C6.60316374,6.73658515 6.5186097,6.84988757 6.455,6.975 Z M7.5,8.175 C7.12720779,8.175 6.825,7.87279221 6.825,7.5 C6.825,7.12720779 7.12720779,6.825 7.5,6.825 C7.87279221,6.825 8.175,7.12720779 8.175,7.5 C8.175,7.87279221 7.87279221,8.175 7.5,8.175 Z" id="Shape" fill="#0064FF" fill-rule="nonzero"></path>
            <path d="M13.075,9.4675 L13.075,9.0175 C13.3511424,9.0175 13.575,8.79364237 13.575,8.5175 L13.575,7.935 C13.575,7.79692881 13.4630712,7.685 13.325,7.685 L9.985,7.685 C9.84692881,7.685 9.735,7.79692881 9.735,7.935 L9.735,8.5175 C9.735,8.79364237 9.95885763,9.0175 10.235,9.0175 L10.235,9.4675 C10.2357063,9.93339913 10.4657085,10.3690944 10.85,10.6325 C10.4716646,10.9006118 10.2477557,11.3363012 10.25,11.8 L10.25,12.25 C9.97385763,12.25 9.75,12.4738576 9.75,12.75 L9.75,13.3325 C9.75,13.4705712 9.86192881,13.5825 10,13.5825 L13.3325,13.5825 C13.4705712,13.5825 13.5825,13.4705712 13.5825,13.3325 L13.5825,12.75 C13.5825,12.4738576 13.3586424,12.25 13.0825,12.25 L13.0825,11.8 C13.0818899,11.3340005 12.853074,10.8978493 12.47,10.6325 C12.8508295,10.3671564 13.0769943,9.93164905 13.075,9.4675 Z M10.235,8.5175 L10.235,8.185 L13.0825,8.185 L13.0825,8.5175 L10.235,8.5175 Z M13.0825,12.75 L13.0825,13.0825 L10.235,13.0825 L10.235,12.75 L13.0825,12.75 Z M12.5825,11.8 L12.5825,12.25 L10.75,12.25 L10.75,11.8 C10.7322986,11.4612357 10.9029602,11.1403475 11.193743,10.9656479 C11.4845259,10.7909483 11.8479741,10.7909483 12.138757,10.9656479 C12.4295398,11.1403475 12.6002014,11.4612357 12.5825,11.8 Z M12.5825,9.4675 C12.5570293,9.95495023 12.1543652,10.3371232 11.66625,10.3371232 C11.1781348,10.3371232 10.7754707,9.95495023 10.75,9.4675 L10.75,9.0175 L12.575,9.0175 L12.5825,9.4675 Z" id="Shape" fill="#0064FF" fill-rule="nonzero"></path>
        </g>
    </g>
</svg>