<?xml version="1.0" encoding="UTF-8"?>
<svg width="21px" height="21px" viewBox="0 0 21 21" version="1.1" xmlns="http://www.w3.org/2000/svg" xmlns:xlink="http://www.w3.org/1999/xlink">
    <!-- Generator: Sketch 51.2 (57519) - http://www.bohemiancoding.com/sketch -->
    <title>Slice 2 Copy 7</title>
    <desc>Created with Sketch.</desc>
    <defs></defs>
    <g id="transcription" stroke="none" stroke-width="1" fill="none" fill-rule="evenodd">
        <g id="Speech" transform="translate(3.000000, 3.000000)">
            <rect id="Rectangle-path" x="0" y="0" width="15" height="15"></rect>
            <path d="M4.7875,10 L4.7875,8.3925 C4.72133392,7.89561981 4.29751627,7.52449787 3.79625,7.52449787 C3.29498373,7.52449787 2.87116608,7.89561981 2.805,8.3925 L2.805,10 C2.87116608,10.4968802 3.29498373,10.8680021 3.79625,10.8680021 C4.29751627,10.8680021 4.72133392,10.4968802 4.7875,10 Z M3.305,10 L3.305,8.3925 C3.34974571,8.15647482 3.55602081,7.98563129 3.79625,7.98563129 C4.03647919,7.98563129 4.24275429,8.15647482 4.2875,8.3925 L4.2875,10 C4.24275429,10.2360252 4.03647919,10.4068687 3.79625,10.4068687 C3.55602081,10.4068687 3.34974571,10.2360252 3.305,10 Z" id="Shape" fill="#0064FF" fill-rule="nonzero"></path>
            <path d="M4.25,12.4275 L4.0425,12.4275 L4.0425,12 C5.04181495,11.8740986 5.79158666,11.0247143 5.7925,10.0175 C5.7925,9.87942881 5.68057119,9.7675 5.5425,9.7675 C5.40442881,9.7675 5.2925,9.87942881 5.2925,10.0175 C5.29249999,10.8459271 4.62092712,11.5175 3.7925,11.5175 C2.96407288,11.5175 2.29250001,10.8459271 2.2925,10.0175 C2.2925,9.87942881 2.18057119,9.7675 2.0425,9.7675 C1.90442881,9.7675 1.7925,9.87942881 1.7925,10.0175 C1.79341334,11.0247143 2.54318505,11.8740986 3.5425,12 L3.5425,12.43 L3.3375,12.43 C3.19942881,12.43 3.0875,12.5419288 3.0875,12.68 C3.0875,12.8180712 3.19942881,12.93 3.3375,12.93 L4.25,12.93 C4.38807119,12.93 4.5,12.8180712 4.5,12.68 C4.5,12.5419288 4.38807119,12.43 4.25,12.43 L4.25,12.4275 Z" id="Shape" fill="#0064FF" fill-rule="nonzero"></path>
            <path d="M5.75,6.515 L7.9075,6.515 C8.04557119,6.515 8.1575,6.40307119 8.1575,6.265 C8.1575,6.12692881 8.04557119,6.015 7.9075,6.015 L5.75,6.015 C5.61192881,6.015 5.5,6.12692881 5.5,6.265 C5.5,6.40307119 5.61192881,6.515 5.75,6.515 Z" id="Shape" fill="#0064FF" fill-rule="nonzero"></path>
            <path d="M9.25,10.1225 L8.375,10.1225 C8.23692881,10.1225 8.125,10.2344288 8.125,10.3725 C8.125,10.5105712 8.23692881,10.6225 8.375,10.6225 L9.25,10.6225 C9.38807119,10.6225 9.5,10.5105712 9.5,10.3725 C9.5,10.2344288 9.38807119,10.1225 9.25,10.1225 Z" id="Shape" fill="#0064FF" fill-rule="nonzero"></path>
            <path d="M5.75,7.885 L9.25,7.885 C9.38807119,7.885 9.5,7.77307119 9.5,7.635 C9.5,7.49692881 9.38807119,7.385 9.25,7.385 L5.75,7.385 C5.61192881,7.385 5.5,7.49692881 5.5,7.635 C5.5,7.77307119 5.61192881,7.885 5.75,7.885 Z" id="Shape" fill="#0064FF" fill-rule="nonzero"></path>
            <path d="M5.75,9.25 L9.25,9.25 C9.38807119,9.25 9.5,9.13807119 9.5,9 C9.5,8.86192881 9.38807119,8.75 9.25,8.75 L5.75,8.75 C5.61192881,8.75 5.5,8.86192881 5.5,9 C5.5,9.13807119 5.61192881,9.25 5.75,9.25 Z" id="Shape" fill="#0064FF" fill-rule="nonzero"></path>
            <path d="M13.045,10.25 L11.445,10.25 L11.445,3.25 C11.4436249,2.60163586 10.9183641,2.07637511 10.27,2.075 L3.795,2.075 C3.14663586,2.07637511 2.62137511,2.60163586 2.62,3.25 L2.62,4.545 C2.62,4.68307119 2.73192881,4.795 2.87,4.795 L3.545,4.795 L3.545,6.795 C3.545,6.93307119 3.65692881,7.045 3.795,7.045 C3.93307119,7.045 4.045,6.93307119 4.045,6.795 L4.045,4.795 L9.345,4.795 C9.48307119,4.795 9.595,4.68307119 9.595,4.545 L9.595,3.25 C9.595,2.87720779 9.89720779,2.575 10.27,2.575 C10.6427922,2.575 10.945,2.87720779 10.945,3.25 L10.945,11.75 C10.9444598,11.9915408 11.0186894,12.2273289 11.1575,12.425 L5.1275,12.425 C4.98942881,12.425 4.8775,12.5369288 4.8775,12.675 C4.8775,12.8130712 4.98942881,12.925 5.1275,12.925 L12.1275,12.925 C12.7758641,12.9236249 13.3011249,12.3983641 13.3025,11.75 L13.3025,10.5 C13.3025304,10.4323757 13.2751642,10.3676237 13.2266452,10.3205179 C13.1781263,10.2734121 13.1125938,10.2479713 13.045,10.25 Z M9.095,3.25 L9.095,4.295 L3.12,4.295 L3.12,3.25 C3.121371,2.87777716 3.42277716,2.576371 3.795,2.575 L9.295,2.575 C9.16163733,2.77461176 9.09190555,3.0099565 9.095,3.25 Z M12.12,12.435 C11.7472078,12.435 11.445,12.1327922 11.445,11.76 L11.445,10.75 L12.7950046,10.75 L12.795,11.75 C12.7956646,11.9294539 12.7248423,12.1017857 12.5981831,12.228914 C12.471524,12.3560423 12.2994551,12.4275012 12.12,12.4275 L12.12,12.435 Z" id="Shape" fill="#0064FF" fill-rule="nonzero"></path>
        </g>
    </g>
</svg>