<?xml version="1.0" encoding="UTF-8"?>
<svg width="21px" height="21px" viewBox="0 0 21 21" version="1.1" xmlns="http://www.w3.org/2000/svg" xmlns:xlink="http://www.w3.org/1999/xlink">
    <!-- Generator: Sketch 51.2 (57519) - http://www.bohemiancoding.com/sketch -->
    <title>Slice 2</title>
    <desc>Created with Sketch.</desc>
    <defs></defs>
    <g id="transcription" stroke="none" stroke-width="1" fill="none" fill-rule="evenodd">
        <g id="calendar" transform="translate(3.000000, 3.000000)" fill="#0064FF">
            <path d="M13.75,15 L1.25,15 C0.559644063,15 0,14.4403559 0,13.75 L0,2.5 C0,1.80964406 0.559644063,1.25 1.25,1.25 L2.5,1.25 L2.5,2.5 L1.25,2.5 L1.25,13.75 L13.75,13.75 L13.75,2.5 L12.5,2.5 L12.5,1.25 L13.75,1.25 C14.4403559,1.25 15,1.80964406 15,2.5 L15,13.75 C15,14.4403559 14.4403559,15 13.75,15 L13.75,15 Z M10.625,10.625 L11.875,10.625 C12.220178,10.625 12.5,10.904822 12.5,11.25 C12.5,11.595178 12.220178,11.875 11.875,11.875 L10.625,11.875 C10.279822,11.875 10,11.595178 10,11.25 C10,10.904822 10.279822,10.625 10.625,10.625 L10.625,10.625 Z M10.625,8.125 L11.875,8.125 C12.220178,8.125 12.5,8.40482203 12.5,8.75 C12.5,9.09517797 12.220178,9.375 11.875,9.375 L10.625,9.375 C10.279822,9.375 10,9.09517797 10,8.75 C10,8.40482203 10.279822,8.125 10.625,8.125 L10.625,8.125 Z M11.875,6.875 L10.625,6.875 C10.279822,6.875 10,6.59517797 10,6.25 C10,5.90482203 10.279822,5.625 10.625,5.625 L11.875,5.625 C12.220178,5.625 12.5,5.90482203 12.5,6.25 C12.5,6.59517797 12.220178,6.875 11.875,6.875 L11.875,6.875 Z M11.25,3.75 C10.904822,3.75 10.625,3.47017797 10.625,3.125 L10.625,0.625 C10.625,0.279822031 10.904822,0 11.25,0 C11.595178,0 11.875,0.279822031 11.875,0.625 L11.875,3.125 C11.875,3.47017797 11.595178,3.75 11.25,3.75 L11.25,3.75 Z M8.75,1.25 L10,1.25 L10,2.5 L8.75,2.5 L8.75,1.25 L8.75,1.25 Z M6.875,10.625 L8.125,10.625 C8.47017797,10.625 8.75,10.904822 8.75,11.25 C8.75,11.595178 8.47017797,11.875 8.125,11.875 L6.875,11.875 C6.52982203,11.875 6.25,11.595178 6.25,11.25 C6.25,10.904822 6.52982203,10.625 6.875,10.625 L6.875,10.625 Z M6.875,8.125 L8.125,8.125 C8.47017797,8.125 8.75,8.40482203 8.75,8.75 C8.75,9.09517797 8.47017797,9.375 8.125,9.375 L6.875,9.375 C6.52982203,9.375 6.25,9.09517797 6.25,8.75 C6.25,8.40482203 6.52982203,8.125 6.875,8.125 L6.875,8.125 Z M8.125,6.875 L6.875,6.875 C6.52982203,6.875 6.25,6.59517797 6.25,6.25 C6.25,5.90482203 6.52982203,5.625 6.875,5.625 L8.125,5.625 C8.47017797,5.625 8.75,5.90482203 8.75,6.25 C8.75,6.59517797 8.47017797,6.875 8.125,6.875 L8.125,6.875 Z M7.5,3.75 C7.15482203,3.75 6.875,3.47017797 6.875,3.125 L6.875,0.625 C6.875,0.279822031 7.15482203,0 7.5,0 C7.84517797,0 8.125,0.279822031 8.125,0.625 L8.125,3.125 C8.125,3.47017797 7.84517797,3.75 7.5,3.75 L7.5,3.75 Z M5,1.25 L6.25,1.25 L6.25,2.5 L5,2.5 L5,1.25 L5,1.25 Z M3.125,10.625 L4.375,10.625 C4.72017797,10.625 5,10.904822 5,11.25 C5,11.595178 4.72017797,11.875 4.375,11.875 L3.125,11.875 C2.77982203,11.875 2.5,11.595178 2.5,11.25 C2.5,10.904822 2.77982203,10.625 3.125,10.625 L3.125,10.625 Z M3.125,8.125 L4.375,8.125 C4.72017797,8.125 5,8.40482203 5,8.75 C5,9.09517797 4.72017797,9.375 4.375,9.375 L3.125,9.375 C2.77982203,9.375 2.5,9.09517797 2.5,8.75 C2.5,8.40482203 2.77982203,8.125 3.125,8.125 L3.125,8.125 Z M4.375,6.875 L3.125,6.875 C2.77982203,6.875 2.5,6.59517797 2.5,6.25 C2.5,5.90482203 2.77982203,5.625 3.125,5.625 L4.375,5.625 C4.72017797,5.625 5,5.90482203 5,6.25 C5,6.59517797 4.72017797,6.875 4.375,6.875 L4.375,6.875 Z M3.75,3.75 C3.40482203,3.75 3.125,3.47017797 3.125,3.125 L3.125,0.625 C3.125,0.279822031 3.40482203,0 3.75,0 C4.09517797,0 4.375,0.279822031 4.375,0.625 L4.375,3.125 C4.375,3.47017797 4.09517797,3.75 3.75,3.75 L3.75,3.75 Z"></path>
        </g>
    </g>
</svg>