<?xml version="1.0" encoding="UTF-8"?>
<svg width="21px" height="21px" viewBox="0 0 21 21" version="1.1" xmlns="http://www.w3.org/2000/svg" xmlns:xlink="http://www.w3.org/1999/xlink">
    <!-- Generator: Sketch 51.2 (57519) - http://www.bohemiancoding.com/sketch -->
    <title>Slice 2 Copy 8</title>
    <desc>Created with Sketch.</desc>
    <defs></defs>
    <g id="transcription" stroke="none" stroke-width="1" fill="none" fill-rule="evenodd">
        <g id="clock2" transform="translate(3.000000, 3.000000)" fill="#D0021B">
            <path d="M13.5756551,3.10977169 C13.1068836,2.46111962 12.5370956,1.89174455 11.8879731,1.42331273 C11.9592909,0.600903593 12.6602351,-0.0231241023 13.485982,0.000657592704 C14.3117289,0.0244392877 14.975543,0.687772324 14.9993419,1.51292084 C15.0231409,2.33806936 14.3986606,3.03850556 13.5756551,3.10977169 L13.5756551,3.10977169 Z M13.750674,7.49581424 C13.7522281,9.42157676 12.8612942,11.2395176 11.3379138,12.4190252 L12.4192804,14.1373395 C12.5002147,14.2703762 12.521254,14.4313503 12.477227,14.5806957 C12.4332,14.7300412 12.3281893,14.8539096 12.1880055,14.9218552 C11.8908359,15.0809053 11.5214687,14.9903816 11.3316631,14.7119848 L10.3065526,13.0723719 C8.54217271,13.9651573 6.45782729,13.9651573 4.69344739,13.0723719 L3.66833686,14.7119848 C3.47853133,14.9903816 3.10916411,15.0809053 2.81199452,14.9218552 C2.67181072,14.8539096 2.56680001,14.7300412 2.52277302,14.5806957 C2.47874604,14.4313503 2.49978531,14.2703762 2.58071959,14.1373395 L3.66208618,12.4190252 C1.35213918,10.6234201 0.598180954,7.46662975 1.84766728,4.82213206 C3.0971536,2.17763436 6.01554884,0.753463241 8.87085679,1.39482942 C11.7261647,2.03619561 13.7539094,4.57138065 13.750674,7.49581424 L13.750674,7.49581424 Z M7.5,2.49889878 C4.73827847,2.49889878 2.49946082,4.73609403 2.49946082,7.49581424 C2.49946082,10.2555344 4.73827847,12.4927297 7.5,12.4927297 C10.2617215,12.4927297 12.5005392,10.2555344 12.5005392,7.49581424 C12.5005392,4.73609403 10.2617215,2.49889878 7.5,2.49889878 L7.5,2.49889878 Z M7.80003235,8.59076333 L7.29372776,8.0785795 C7.04397848,7.99353794 6.87577103,7.75947254 6.8749326,7.49581424 L6.8749326,5.62197094 C6.8749326,5.27700591 7.15478481,4.99735651 7.5,4.99735651 C7.84521519,4.99735651 8.1250674,5.27700591 8.1250674,5.62197094 L8.1250674,7.34653139 L8.5813666,7.80437377 C8.79538322,8.0229194 8.79259048,8.37315492 8.57511592,8.58826488 C8.47323259,8.69235844 8.33380697,8.75124064 8.18809773,8.75171032 C8.04238849,8.75218001 7.90258561,8.6941979 7.80003235,8.59076333 L7.80003235,8.59076333 Z M1.4243449,3.10977169 C0.601339363,3.03850556 -0.0231408717,2.33806936 0.000658069584,1.51292084 C0.0244570109,0.687772324 0.688271091,0.0244392877 1.514018,0.000657592704 C2.33976491,-0.0231241023 3.04070906,0.600903593 3.11202687,1.42331273 C2.46290441,1.89174455 1.89311642,2.46111962 1.4243449,3.10977169 L1.4243449,3.10977169 Z"></path>
        </g>
    </g>
</svg>