<svg width="28px" height="28px" viewBox="0 0 28 28" version="1.1" xmlns="http://www.w3.org/2000/svg" xmlns:xlink="http://www.w3.org/1999/xlink">
    <g id="pencil-paper-test" stroke="none" stroke-width="1" fill="none" fill-rule="evenodd">
        <path d="M19.6521739,13.3427805 L19.6521739,17.7303902 C19.6521739,17.9736098 19.4595652,18.1707317 19.2173913,18.1707317 C18.9769565,18.1707317 18.7826087,17.9705366 18.7826087,17.7303902 L18.7826087,13.3427805 C18.7826087,13.099561 18.9752174,12.902439 19.2173913,12.902439 C19.4578261,12.902439 19.6521739,13.1026341 19.6521739,13.3427805 L19.6521739,13.3427805 Z M21.3913043,14.2173171 L21.3913043,17.7339024 C21.3913043,17.9753659 21.1986957,18.1707317 20.9565217,18.1707317 C20.716087,18.1707317 20.5217391,17.9705366 20.5217391,17.7339024 L20.5217391,14.2173171 C20.5217391,13.9758537 20.7143478,13.7804878 20.9565217,13.7804878 C21.1969565,13.7804878 21.3913043,13.9806829 21.3913043,14.2173171 L21.3913043,14.2173171 Z M17.9130435,14.2173171 L17.9130435,17.7339024 C17.9130435,17.9753659 17.7204348,18.1707317 17.4782609,18.1707317 C17.2378261,18.1707317 17.0434783,17.9705366 17.0434783,17.7339024 L17.0434783,14.2173171 C17.0434783,13.9758537 17.236087,13.7804878 17.4782609,13.7804878 C17.7186957,13.7804878 17.9130435,13.9806829 17.9130435,14.2173171 L17.9130435,14.2173171 Z M16.173913,15.5379024 L16.173913,17.7303902 C16.173913,17.9736098 15.9813043,18.1707317 15.7391304,18.1707317 C15.4986957,18.1707317 15.3043478,17.978878 15.3043478,17.7303902 L15.3043478,15.5379024 C15.3043478,15.2946829 15.4969565,15.097561 15.7391304,15.097561 C15.9795652,15.097561 16.173913,15.2898537 16.173913,15.5379024 L16.173913,15.5379024 Z M12.2152174,15.5822439 C12.2134783,15.5919024 12.2126087,15.602 12.2104348,15.6112195 C12.1804348,15.763122 12.136087,15.9101951 12.0813043,16.052439 C12.0756522,16.0664878 12.0713043,16.0814146 12.0656522,16.0959024 C12.0095652,16.2341951 11.9404348,16.3667805 11.8613043,16.4940976 C11.8526087,16.5081463 11.843913,16.5235122 11.8352174,16.537561 C11.8273913,16.5494146 11.8169565,16.5586341 11.81,16.5700488 C11.4591304,16.232439 11.4086957,16.1837073 11.1908696,15.9734146 C11.1047826,15.890878 11.1047826,15.890878 11.0704348,15.8575122 C11.0595652,15.8469756 11.0595652,15.8469756 11.0552174,15.8430244 C11.0543478,15.8417073 11.0543478,15.8417073 11.0534783,15.8408293 L11.0530435,15.8403902 C11.0526087,15.8399512 11.0526087,15.8399512 11.0508696,15.8390732 C11.0465217,15.8346829 11.0465217,15.8346829 11.036087,15.8241463 C11.0017391,15.7912195 11.0017391,15.7912195 10.9156522,15.7082439 C10.6608696,15.4628293 10.6352174,15.4378049 10.0869565,14.9096585 L10.0869565,13.5622927 L10.0869565,13.5609756 L10.0869565,13.5368293 L10.0869565,13.369122 L10.0869565,12.5029268 C11.32,12.7119024 12.2608696,13.7923415 12.2608696,15.097561 C12.2608696,15.2621951 12.243913,15.4241951 12.2152174,15.5822439 L12.2152174,15.5822439 Z M9.65217391,17.7317073 C8.21173913,17.7317073 7.04347826,16.5524878 7.04347826,15.097561 C7.04347826,13.7923415 7.98434783,12.7119024 9.2173913,12.5029268 L9.2173913,13.369122 L9.2173913,13.5368293 L9.2173913,13.5609756 L9.2173913,13.5622927 L9.2173913,15.097561 C9.2173913,15.2178537 9.26565217,15.332439 9.35217391,15.4154146 C10.0404348,16.0779024 10.0404348,16.0779024 10.3152174,16.3435122 C10.4013043,16.4260488 10.4013043,16.4260488 10.4356522,16.4598537 C10.446087,16.4699512 10.446087,16.4699512 10.4504348,16.4739024 C10.4521739,16.4752195 10.4521739,16.4752195 10.4526087,16.4760976 L10.4530435,16.4760976 L10.4530435,16.4765366 C10.453913,16.4769756 10.453913,16.4769756 10.4547826,16.4782927 C10.4591304,16.4822439 10.4591304,16.4822439 10.47,16.4927805 C10.5043478,16.5257073 10.5043478,16.5257073 10.5904348,16.6086829 C10.8086957,16.8185366 10.8586957,16.8672683 11.2104348,17.2066341 C10.7756522,17.5350244 10.2373913,17.7317073 9.65217391,17.7317073 L9.65217391,17.7317073 Z M9.65217391,11.5853659 C8.61173913,11.5853659 7.68086957,12.0494146 7.04347826,12.7799512 C6.50391304,13.3989756 6.17391304,14.2085366 6.17391304,15.097561 C6.17391304,15.9865854 6.50391304,16.7961463 7.04347826,17.4151707 C7.68086957,18.1457073 8.61173913,18.6097561 9.65217391,18.6097561 C10.6373913,18.6097561 11.5247826,18.194878 12.1573913,17.5301951 C12.1608696,17.5266829 12.1647826,17.5258049 12.1682609,17.5227317 C12.1978261,17.4906829 12.2243478,17.456439 12.2530435,17.4239512 C12.2886957,17.3826829 12.3252174,17.3422927 12.3595652,17.3001463 C12.396087,17.2549268 12.4291304,17.2079512 12.4626087,17.1605366 C12.493913,17.1175122 12.5256522,17.0749268 12.5552174,17.0297073 C12.5873913,16.9805366 12.6165217,16.9291707 12.6465217,16.8786829 C12.6726087,16.8330244 12.7004348,16.7886829 12.7247826,16.7412683 C12.7526087,16.6890244 12.7765217,16.6350244 12.8013043,16.5819024 C12.823913,16.5336098 12.8473913,16.4857561 12.8673913,16.4361463 C12.8895652,16.3821463 12.9078261,16.3259512 12.9273913,16.2706341 C12.9452174,16.2192683 12.9647826,16.1692195 12.98,16.1169756 C12.9978261,16.0594634 13.0108696,15.9997561 13.0252174,15.9404878 C13.0378261,15.889122 13.0521739,15.8395122 13.0626087,15.7868293 C13.076087,15.7183415 13.0847826,15.6489756 13.093913,15.5796098 C13.1,15.5348293 13.1082609,15.4922439 13.1130435,15.4470244 C13.1243478,15.331561 13.1304348,15.2152195 13.1304348,15.097561 C13.1304348,13.1579512 11.5730435,11.5853659 9.65217391,11.5853659 L9.65217391,11.5853659 Z M9.2173913,7.19512195 C9.2173913,7.43790244 9.02304348,7.63414634 8.7826087,7.63414634 C8.54217391,7.63414634 8.34782609,7.43790244 8.34782609,7.19512195 C8.34782609,6.95234146 8.54217391,6.75609756 8.7826087,6.75609756 C9.02304348,6.75609756 9.2173913,6.95234146 9.2173913,7.19512195 L9.2173913,7.19512195 Z M7.91304348,7.19512195 C7.91304348,7.43790244 7.71869565,7.63414634 7.47826087,7.63414634 C7.23782609,7.63414634 7.04347826,7.43790244 7.04347826,7.19512195 C7.04347826,6.95234146 7.23782609,6.75609756 7.47826087,6.75609756 C7.71869565,6.75609756 7.91304348,6.95234146 7.91304348,7.19512195 L7.91304348,7.19512195 Z M6.60869565,7.19512195 C6.60869565,7.43790244 6.41434783,7.63414634 6.17391304,7.63414634 C5.93347826,7.63414634 5.73913043,7.43790244 5.73913043,7.19512195 C5.73913043,6.95234146 5.93347826,6.75609756 6.17391304,6.75609756 C6.41434783,6.75609756 6.60869565,6.95234146 6.60869565,7.19512195 L6.60869565,7.19512195 Z M23.1304348,8.51219512 L11.3913043,8.51219512 L10.0869565,8.51219512 L8.7826087,8.51219512 L6.17391304,8.51219512 L4.86956522,8.51219512 L4.86956522,6.31707317 L4.86956522,6.31619512 C4.86956522,6.07604878 5.06608696,5.87804878 5.30434783,5.87804878 L6.17391304,5.87804878 L8.7826087,5.87804878 L10.0869565,5.87804878 L11.3913043,5.87804878 L22.6956522,5.87804878 C22.936087,5.87804878 23.1304348,6.07385366 23.1304348,6.31619512 L23.1304348,6.31707317 L23.1304348,8.51219512 Z M23.1304348,21.6838049 C23.1304348,21.9239512 22.933913,22.1219512 22.6956522,22.1219512 L5.30434783,22.1219512 C5.06391304,22.1219512 4.86956522,21.9261463 4.86956522,21.6838049 L4.86956522,20.804878 L4.86956522,11.5853659 L4.86956522,9.82926829 L4.86956522,9.3902439 L6.17391304,9.3902439 L7.04347826,9.3902439 L8.7826087,9.3902439 L10.0869565,9.3902439 L11.3913043,9.3902439 L15.3043478,9.3902439 L23.1304348,9.3902439 L23.1304348,11.5853659 L23.1304348,20.3658537 L23.1304348,21.6838049 Z M22.6956522,5 L11.3913043,5 L10.0869565,5 L8.7826087,5 L6.17391304,5 L5.30434783,5 C5.15130435,5 5.00608696,5.03160976 4.86956522,5.08121951 C4.36565217,5.26297561 4,5.74458537 4,6.31619512 L4,6.31707317 L4,9.3902439 L4,9.82926829 L4,11.5853659 L4,20.804878 L4,21.6838049 C4,22.4112683 4.58434783,23 5.30434783,23 L22.6956522,23 C23.4121739,23 24,22.4103902 24,21.6838049 L24,11.5853659 L24,6.31707317 L24,6.31619512 C24,5.58873171 23.4156522,5 22.6956522,5 L22.6956522,5 Z" id="ANALYTICS-Copy" fill="#918DA5"></path>
    </g>
</svg>