<?xml version="1.0" encoding="UTF-8"?>
<svg width="21px" height="21px" viewBox="0 0 21 21" version="1.1" xmlns="http://www.w3.org/2000/svg" xmlns:xlink="http://www.w3.org/1999/xlink">
    <!-- Generator: Sketch 51.2 (57519) - http://www.bohemiancoding.com/sketch -->
    <title>Slice 2 Copy</title>
    <desc>Created with Sketch.</desc>
    <defs></defs>
    <g id="transcription" stroke="none" stroke-width="1" fill="none" fill-rule="evenodd">
        <g id="file" transform="translate(5.000000, 3.000000)" fill="#0064FF">
            <path d="M11.6666667,5.00198712 L11.6666667,13.8891097 C11.6666667,14.5026375 11.1918172,15 10.6060606,15 L1.06060606,15 C0.474849508,15 0,14.5026375 0,13.8891097 L0,1.11387099 C0,0.500343211 0.474849508,0.0029806737 1.06060606,0.0029806737 L7.92272727,0.0029806737 C8.0848914,-0.0143404877 8.24605488,0.0444359772 8.36287879,0.163504325 L11.4969697,3.44674067 C11.6077738,3.56419778 11.6639641,3.72655457 11.6507576,3.8910968 L11.6666667,3.8910968 L11.6666667,5.00198712 L7.42424242,5.00198712 C7.13136415,5.00198712 6.89393939,4.75330585 6.89393939,4.44654196 L6.89393939,1.11387099 L1.06060606,1.11387099 L1.06060606,13.8891097 L10.6060606,13.8891097 L10.6060606,5.00198712 L11.6666667,5.00198712 L11.6666667,5.00198712 Z M7.95454545,1.37937378 L7.95454545,3.8910968 L10.3515152,3.8910968 L7.95454545,1.37937378 Z"></path>
        </g>
    </g>
</svg>