<?xml version="1.0" encoding="UTF-8"?>
<svg width="21px" height="21px" viewBox="0 0 21 21" version="1.1" xmlns="http://www.w3.org/2000/svg" xmlns:xlink="http://www.w3.org/1999/xlink">
    <!-- Generator: Sketch 51.2 (57519) - http://www.bohemiancoding.com/sketch -->
    <title>Slice 2 Copy 2</title>
    <desc>Created with Sketch.</desc>
    <defs></defs>
    <g id="transcription" stroke="none" stroke-width="1" fill="none" fill-rule="evenodd">
        <g id="folder" transform="translate(3.000000, 4.000000)" fill="#0064FF">
            <path d="M13.75,13.75 L1.25,13.75 C0.559644063,13.75 0,13.1903559 0,12.5 L0,12.5 L0,11.875 L0,11.875 L0,1.25 C0,0.559644063 0.559644063,0 1.25,0 L6.25,0 C6.94035594,0 7.5,0.559644063 7.5,1.25 L13.75,1.25 C14.4403559,1.25 15,1.80964406 15,2.5 L15,12.5 C15,13.1903559 14.4403559,13.75 13.75,13.75 L13.75,13.75 Z M13.75,2.5 L6.25,2.5 L6.25,1.25 L1.25,1.25 L1.25,3.75 L13.75,3.75 L13.75,2.5 L13.75,2.5 Z M13.75,5 L1.25,5 L1.25,11.875 L1.25,11.875 L1.25,12.5 L13.75,12.5 L13.75,11.875 L13.75,11.875 L13.75,5 L13.75,5 Z"></path>
        </g>
    </g>
</svg>