<svg width="28px" height="28px" viewBox="0 0 28 28" version="1.1" xmlns="http://www.w3.org/2000/svg" xmlns:xlink="http://www.w3.org/1999/xlink">
    <g id="pencil-paper-test" stroke="none" stroke-width="1" fill="none" fill-rule="evenodd">
        <path d="M20.5791325,18.9690842 L23.8369402,22.2572397 C24.2074605,22.7253735 23.9263762,24.2056884 23.1981123,24.5726041 C22.5209547,24.9142152 21.6904784,24.8636062 21.3071816,24.4840383 L17.9795467,21.1887755 C16.6065702,21.9789786 15.0102392,22.4313434 13.3062053,22.4313434 C8.1624118,22.4313434 4,18.3094248 4,13.2156717 C4,8.12191862 8.1624118,4 13.3062053,4 C18.4499987,4 22.6124105,8.12191862 22.6124105,13.2156717 C22.6124105,15.3930722 21.8518288,17.392893 20.5791325,18.9690842 Z M13.3062053,20.3162968 C17.2694702,20.3162968 20.4765859,17.1403809 20.4765859,13.2156717 C20.4765859,9.29096259 17.2694702,6.11504665 13.3062053,6.11504665 C9.3429403,6.11504665 6.13582458,9.29096259 6.13582458,13.2156717 C6.13582458,17.1403809 9.3429403,20.3162968 13.3062053,20.3162968 Z" id="Combined-Shape-Copy" fill="#4A90E2"></path>
    </g>
</svg>