<svg width="28px" height="28px" viewBox="0 0 28 28" version="1.1" xmlns="http://www.w3.org/2000/svg" xmlns:xlink="http://www.w3.org/1999/xlink">
    <g id="pencil-paper-test" stroke="none" stroke-width="1" fill="none" fill-rule="evenodd">
        <path d="M14.0077519,23 C9.04651163,23 5,18.9655172 5,14 C5,9.77931034 7.86821705,6.1637931 11.9767442,5.21724138 C12.3178295,5.13965517 12.6589147,5.35689655 12.7364341,5.69827586 C12.8139535,6.03965517 12.5968992,6.38103448 12.255814,6.45862069 C8.73643411,7.28103448 6.27131783,10.3689655 6.27131783,14 C6.27131783,18.2672414 9.74418605,21.7431034 14.0077519,21.7431034 C18.2713178,21.7431034 21.744186,18.2672414 21.744186,14 C21.744186,10.3534483 19.2635659,7.25 15.7131783,6.45862069 C15.372093,6.38103448 15.1550388,6.03965517 15.2325581,5.69827586 C15.3100775,5.35689655 15.6511628,5.13965517 15.9922481,5.21724138 C20.1162791,6.14827586 23,9.7637931 23,14 C23,18.9655172 18.9689922,23 14.0077519,23 Z M13.372093,5.6362069 C13.372093,5.27931034 13.6511628,5 14.0077519,5 C14.3643411,5 14.6434109,5.27931034 14.6434109,5.6362069 L14.6434109,14 C14.6434109,14.3568966 14.3643411,14.6362069 14.0077519,14.6362069 C13.6511628,14.6362069 13.372093,14.3568966 13.372093,14 L13.372093,5.6362069 Z" id="power-copy-3" fill="#918DA5"></path>
    </g>
</svg>