<?xml version="1.0" encoding="UTF-8"?>
<svg width="21px" height="21px" viewBox="0 0 21 21" version="1.1" xmlns="http://www.w3.org/2000/svg" xmlns:xlink="http://www.w3.org/1999/xlink">
    <!-- Generator: Sketch 51.2 (57519) - http://www.bohemiancoding.com/sketch -->
    <title>Slice 2 Copy 5</title>
    <desc>Created with Sketch.</desc>
    <defs></defs>
    <g id="transcription" stroke="none" stroke-width="1" fill="none" fill-rule="evenodd">
        <g id="Folder" transform="translate(3.000000, 3.000000)">
            <rect id="Rectangle-path" x="0" y="0" width="15" height="15"></rect>
            <path d="M11.5675,8.1225 L11.555,8.1225 L12.035,2.6525 C12.0481418,2.49763375 11.9991161,2.34390365 11.8987429,2.22523819 C11.7983698,2.10657273 11.6549009,2.0327274 11.5,2.02 L4.6375,1.42 C4.31533016,1.39104286 4.03035989,1.62795932 4,1.95 L3.9375,2.6775 L3.3875,2.6775 C3.06965926,2.67745316 2.81045649,2.93220609 2.805,3.25 L2.805,12.6075 C2.805,12.9292059 3.06579413,13.19 3.3875,13.19 L4.3875,13.19 C4.4845024,13.4265298 4.71435446,13.5814087 4.97,13.5825 L11.5675,13.5825 C11.9134895,13.5811297 12.1936297,13.3009895 12.195,12.955 L12.195,8.75 C12.1936297,8.40401049 11.9134895,8.12387027 11.5675,8.1225 Z M4.5,2 C4.5019011,1.97808378 4.51247641,1.95783448 4.52937614,1.94375137 C4.54627587,1.92966826 4.56810024,1.92291783 4.59,1.925 L11.455,2.525 C11.4769162,2.5269011 11.4971655,2.53747641 11.5112486,2.55437614 C11.5253317,2.57127587 11.5320822,2.59310024 11.53,2.615 L11.0525,8.1225 L10.8625,8.1225 L10.8625,3.25 C10.8625,2.92829413 10.6017059,2.6675 10.28,2.6675 L4.445,2.6675 L4.5,2 Z M4.33,9.8925 L4.33,12.69 L3.3875,12.69 C3.34193651,12.69 3.305,12.6530635 3.305,12.6075 L3.305,3.25 C3.305,3.20443651 3.34193651,3.1675 3.3875,3.1675 L10.28,3.1675 C10.3255635,3.1675 10.3625,3.20443651 10.3625,3.25 L10.3625,8.1225 L9.185,8.1225 C8.95771928,8.12267725 8.73727894,8.20027225 8.56,8.3425 L7.5475,9.1475 C7.45819207,9.21915217 7.34699763,9.25798198 7.2325,9.2575 L4.9625,9.2575 C4.61594132,9.2575 4.335,9.53844132 4.335,9.885 L4.33,9.8925 Z M11.695,12.955 C11.695,13.0254163 11.6379163,13.0825 11.5675,13.0825 L4.9625,13.0825 C4.89208369,13.0825 4.835,13.0254163 4.835,12.955 L4.835,9.885 C4.835,9.81458369 4.89208369,9.7575 4.9625,9.7575 L7.2325,9.7575 C7.46063823,9.75789209 7.68205225,9.68026486 7.86,9.5375 L8.86,8.7325 C8.94997589,8.66206165 9.06073522,8.62338379 9.175,8.6225 L11.5575,8.6225 C11.6279163,8.6225 11.685,8.67958369 11.685,8.75 L11.695,12.955 Z" id="Shape" fill="#0064FF" fill-rule="nonzero"></path>
            <path d="M10.91,12.0675 L9.9675,12.0675 C9.82942881,12.0675 9.7175,12.1794288 9.7175,12.3175 C9.7175,12.4555712 9.82942881,12.5675 9.9675,12.5675 L10.91,12.5675 C11.0480712,12.5675 11.16,12.4555712 11.16,12.3175 C11.16,12.1794288 11.0480712,12.0675 10.91,12.0675 Z" id="Shape" fill="#0064FF" fill-rule="nonzero"></path>
            <path d="M6.175,4.53 L7.5,4.53 C7.63807119,4.53 7.75,4.41807119 7.75,4.28 C7.75,4.14192881 7.63807119,4.03 7.5,4.03 L6.175,4.03 C6.03692881,4.03 5.925,4.14192881 5.925,4.28 C5.925,4.41807119 6.03692881,4.53 6.175,4.53 Z" id="Shape" fill="#0064FF" fill-rule="nonzero"></path>
            <path d="M4.75,5.9475 L8.91,5.9475 C9.04807119,5.9475 9.16,5.83557119 9.16,5.6975 C9.16,5.55942881 9.04807119,5.4475 8.91,5.4475 L4.75,5.4475 C4.61192881,5.4475 4.5,5.55942881 4.5,5.6975 C4.5,5.83557119 4.61192881,5.9475 4.75,5.9475 Z" id="Shape" fill="#0064FF" fill-rule="nonzero"></path>
            <path d="M9.16,6.9575 C9.16,6.81942881 9.04807119,6.7075 8.91,6.7075 L4.75,6.7075 C4.61192881,6.7075 4.5,6.81942881 4.5,6.9575 C4.5,7.09557119 4.61192881,7.2075 4.75,7.2075 L8.91,7.2075 C9.04807119,7.2075 9.16,7.09557119 9.16,6.9575 Z" id="Shape" fill="#0064FF" fill-rule="nonzero"></path>
        </g>
    </g>
</svg>