<svg width="28px" height="28px" viewBox="0 0 28 28" version="1.1" xmlns="http://www.w3.org/2000/svg" xmlns:xlink="http://www.w3.org/1999/xlink">
    <g id="pencil-paper-test" stroke="none" stroke-width="1" fill="none" fill-rule="evenodd">
        <path d="M21.969697,19 L8.05906061,19 C7.68351515,19 7.33475758,19.106 7.03030303,19.2785 L7.03030303,6 C7.03030303,5.449 7.49290909,5 8.05906061,5 L21.969697,5 L21.969697,19 Z M21.969697,21 L9.60606061,21 L9.60606061,22 L21.969697,22 L21.969697,23 L8.05906061,23 C7.67218182,23 7.33836364,22.788 7.16269697,22.4805 C7.08130303,22.3365 7.03030303,22.173 7.03030303,21.995 L7.03030303,21.005 C7.03030303,20.4505 7.49393939,20 8.05906061,20 L21.969697,20 L21.969697,21 Z M21.969697,4 L23,4 L23,5 L23,19 L23,20 L23,23 L23,24 L21.969697,24 L8.05906061,24 C7.23687879,24 6.53318182,23.53 6.20348485,22.8515 C6.07624242,22.592 6,22.3055 6,22 L6,21.995 L6,21.005 L6,6 C6,4.8955 6.92624242,4 8.05906061,4 L21.969697,4 Z M12.1818182,10.5 L14.7575758,9 L17.3333333,10.5 L17.3333333,13.5 L14.7575758,15 L12.1818182,13.5 L12.1818182,10.5 Z M11.6517273,14.3575 L14.2274848,15.8575 C14.5535758,16.0475 14.9615758,16.0475 15.2876667,15.8575 L17.8634242,14.3575 C18.1735455,14.177 18.3636364,13.851 18.3636364,13.5 L18.3636364,10.5 C18.3636364,10.149 18.1735455,9.823 17.8634242,9.6425 L15.2876667,8.1425 C14.9615758,7.9525 14.5535758,7.9525 14.2274848,8.1425 L11.6517273,9.6425 C11.3416061,9.823 11.1515152,10.149 11.1515152,10.5 L11.1515152,13.5 C11.1515152,13.851 11.3416061,14.177 11.6517273,14.3575 Z" id="BOOK-Copy" fill="#918DA5"></path>
    </g>
</svg>