<?xml version="1.0" encoding="UTF-8"?>
<svg width="21px" height="21px" viewBox="0 0 21 21" version="1.1" xmlns="http://www.w3.org/2000/svg" xmlns:xlink="http://www.w3.org/1999/xlink">
    <!-- Generator: Sketch 51.2 (57519) - http://www.bohemiancoding.com/sketch -->
    <title>Slice 2 Copy 6</title>
    <desc>Created with Sketch.</desc>
    <defs></defs>
    <g id="transcription" stroke="none" stroke-width="1" fill="none" fill-rule="evenodd">
        <g id="Downvote" transform="translate(3.000000, 3.000000)">
            <rect id="Rectangle-path" x="0" y="0" width="15" height="15"></rect>
            <path d="M12.38,9.0225 C11.1327449,8.30290981 9.53830602,8.73055417 8.81855322,9.97771539 C8.09880043,11.2248766 8.52623689,12.8193713 9.77330426,13.5392867 C11.0203716,14.2592021 12.614922,13.8319735 13.335,12.585 C13.6809139,11.985974 13.77463,11.2740467 13.595522,10.6059083 C13.416414,9.93776991 12.9791613,9.36817956 12.38,9.0225 Z M12.9025,12.335 C12.3204611,13.3426751 11.0318554,13.6878998 10.0240046,13.1061651 C9.0161539,12.5244304 8.67054022,11.235929 9.25197069,10.2279027 C9.83340116,9.2198764 11.1217983,8.87387382 12.13,9.455 C13.1378778,10.037532 13.4835549,11.3262699 12.9025,12.335 Z" id="Shape" fill="#0064FF" fill-rule="nonzero"></path>
            <path d="M10.06,11.8125 C9.92192881,11.8090482 9.80720178,11.9181788 9.80375,12.05625 C9.80029822,12.1943212 9.90942881,12.3090482 10.0475,12.3125 C10.3143759,12.3192168 10.5594133,12.4615269 10.6975,12.69 C10.7203685,12.7250415 10.75121,12.7541695 10.7875,12.775 C10.886595,12.8318046 11.0115887,12.8142228 11.0911681,12.7322856 C11.1707475,12.6503483 11.1846731,12.5248946 11.125,12.4275 C10.8968506,12.0555835 10.4961618,11.8241999 10.06,11.8125 Z" id="Shape" fill="#0064FF" fill-rule="nonzero"></path>
            <path d="M10.9725,10.05 L10.7225,10.115 L10.6575,9.865 C10.6216015,9.73107095 10.4839291,9.65160149 10.35,9.6875 C10.2160709,9.72339851 10.1366015,9.86107095 10.1725,9.995 L10.25,10.25 L10,10.315 C9.91102189,10.33573 9.84043773,10.4033458 9.81590633,10.4913517 C9.79137492,10.5793577 9.81680347,10.6737367 9.88222767,10.7375059 C9.94765186,10.8012752 10.0426513,10.8242777 10.13,10.7975 L10.38,10.7325 L10.445,10.9825 C10.4808985,11.116429 10.6185709,11.1958985 10.7525,11.16 C10.886429,11.1241015 10.9658985,10.986429 10.93,10.8525 L10.8625,10.6025 L11.1125,10.535 C11.244558,10.4984677 11.3226039,10.3624448 11.2875,10.23 C11.27121,10.1633581 11.2282497,10.1063387 11.1686848,10.0723016 C11.1091198,10.0382645 11.0381849,10.0302009 10.9725,10.05 Z" id="Shape" fill="#0064FF" fill-rule="nonzero"></path>
            <path d="M12.5,10.935 L12.25,11 L12.185,10.75 C12.1667959,10.6588244 12.0994982,10.5852826 12.0102914,10.5590812 C11.9210845,10.5328798 11.8247062,10.5583477 11.7600879,10.6251971 C11.6954696,10.6920466 11.6732867,10.7892336 11.7025,10.8775 L11.7675,11.1275 L11.5175,11.1925 C11.4263244,11.2107041 11.3527826,11.2780018 11.3265812,11.3672086 C11.3003798,11.4564155 11.3258477,11.5527938 11.3926971,11.6174121 C11.4595466,11.6820304 11.5567336,11.7042133 11.645,11.675 L11.895,11.61 L11.96,11.86 C11.98073,11.9489781 12.0483458,12.0195623 12.1363517,12.0440937 C12.2243577,12.0686251 12.3187367,12.0431965 12.3825059,11.9777723 C12.4462752,11.9123481 12.4692777,11.8173487 12.4425,11.73 L12.3775,11.48 L12.6275,11.415 C12.7227626,11.4012138 12.8016496,11.333961 12.8303344,11.2420796 C12.8590192,11.1501982 12.8324064,11.0500091 12.7619077,10.9844733 C12.691409,10.9189375 12.5895469,10.8996962 12.5,10.935 Z" id="Shape" fill="#0064FF" fill-rule="nonzero"></path>
            <path d="M3.5475,2.97 C3.38319529,2.97 3.25,3.10319529 3.25,3.2675 C3.25,3.43180471 3.38319529,3.565 3.5475,3.565 C3.71180471,3.565 3.845,3.43180471 3.845,3.2675 C3.845,3.10319529 3.71180471,2.97 3.5475,2.97 Z" id="Shape" fill="#0064FF" fill-rule="nonzero"></path>
            <path d="M3.25,8.25 C2.18165553,8.25138029 1.31658082,9.11831955 1.31750072,10.1866645 C1.31842061,11.2550095 2.184987,12.1204577 3.25333226,12.1199982 C4.32167752,12.1195387 5.18749911,11.2533454 5.1875,10.185 C5.18612055,9.11592474 4.31907615,8.24999911 3.25,8.25 Z M3.25,11.62 C2.45779829,11.6186199 1.81658127,10.9755386 1.81750097,10.1833362 C1.81842066,9.39113386 2.4611291,8.74954317 3.25333188,8.75000242 C4.04553466,8.75046167 4.6874988,9.39279708 4.6875,10.185 C4.68612098,10.9779328 4.04293404,11.6200012 3.25,11.62 Z" id="Shape" fill="#0064FF" fill-rule="nonzero"></path>
            <path d="M3.9475,10.3125 L3.595,10.1 L3.8075,9.75 C3.87789412,9.63125559 3.83872328,9.47792974 3.72,9.4075 C3.60190765,9.33666977 3.44877258,9.37467409 3.3775,9.4925 L3.165,9.8475 L2.8125,9.635 C2.75556405,9.60018367 2.68707096,9.58957726 2.62227131,9.60554239 C2.55747167,9.62150752 2.50174523,9.66271874 2.4675,9.72 C2.39710588,9.83874441 2.43627672,9.99207026 2.555,10.0625 L2.9075,10.275 L2.695,10.63 C2.62416977,10.7480924 2.66217409,10.9012274 2.78,10.9725 C2.89819405,11.041203 3.04965485,11.0022241 3.12,10.885 L3.3325,10.53 L3.685,10.7425 C3.80182291,10.7952974 3.93965032,10.7511703 4.0040861,10.6403408 C4.06852188,10.5295112 4.03868054,10.3879023 3.935,10.3125 L3.9475,10.3125 Z" id="Shape" fill="#0064FF" fill-rule="nonzero"></path>
            <path d="M8.37,7.945 L10.46,7.945 C10.7033361,7.945 10.9367058,7.8483351 11.1087705,7.67627047 C11.2808351,7.50420584 11.3775,7.27083613 11.3775,7.0275 C11.3786294,6.83841199 11.3200079,6.65379797 11.21,6.5 C11.514017,6.34433997 11.7052712,6.03154999 11.7052712,5.69 C11.7052712,5.34845001 11.514017,5.03566003 11.21,4.88 C11.3518768,4.676581 11.40536,4.42439028 11.3582622,4.18089465 C11.3111644,3.93739902 11.1674979,3.7233417 10.96,3.5875 C11.1736928,3.31339362 11.2136376,2.94188281 11.0630991,2.62861439 C10.9125606,2.31534597 10.5975334,2.11441392 10.25,2.11 L6.575,2.11 C5.91514932,2.11355897 5.26715245,2.28566969 4.6925,2.61 C4.60564944,2.31577902 4.33675874,2.11284264 4.03,2.11 L3.065,2.11 C2.68035083,2.11137131 2.36887131,2.42285083 2.3675,2.8075 L2.3675,2.8675 L1.7175,2.8675 C1.57942881,2.8675 1.4675,2.97942881 1.4675,3.1175 C1.4675,3.25557119 1.57942881,3.3675 1.7175,3.3675 L2.3675,3.3675 L2.3675,5.775 L1.7175,5.775 C1.57942881,5.775 1.4675,5.88692881 1.4675,6.025 C1.4675,6.16307119 1.57942881,6.275 1.7175,6.275 L2.37,6.275 L2.37,6.3375 C2.37137722,6.72174194 2.68325559,7.03250247 3.0675,7.0325 L4.03,7.0325 C4.32422051,7.03251818 4.58657372,6.84726877 4.685,6.57 L5.685,7.8775 C6.06970135,8.49032501 6.24515453,9.21143755 6.185,9.9325 L6.17,10.1025 C6.14542711,10.3914532 6.35871209,10.6460552 6.6475,10.6725 L6.7825,10.6725 C7.56428181,10.6652997 8.21309564,10.0662282 8.2825,9.2875 L8.3175,8.8725 C8.34086622,8.61931663 8.31193404,8.36403268 8.2325,8.1225 C8.2189914,8.08116486 8.22545791,8.03589932 8.25,8 C8.27800909,7.96240942 8.32323965,7.94167874 8.37,7.945 Z M4.03,6.535 L3.0675,6.535 C3.01535099,6.53566863 2.9651073,6.5154196 2.92799521,6.47877729 C2.89088312,6.44213497 2.86999571,6.3921533 2.87,6.34 L2.87,2.81 C2.87,2.70092376 2.95842376,2.6125 3.0675,2.6125 L4.0325,2.6125 C4.14157624,2.6125 4.23,2.70092376 4.23,2.81 L4.23,3.33 L4.23,6.33 C4.23206092,6.3841041 4.21181965,6.43668182 4.17401006,6.47543665 C4.13620048,6.51419147 4.08413849,6.5357246 4.03,6.535 Z M7.845,7.7175 C7.72667472,7.88674286 7.69690897,8.10254454 7.765,8.2975 C7.81980908,8.47105041 7.84019069,8.65363566 7.825,8.835 L7.79,9.25 C7.76655251,9.51943137 7.63706163,9.76852147 7.43,9.9425 C7.22215597,10.1190151 6.95124314,10.2029981 6.68,10.175 C6.67291281,10.1750355 6.66614358,10.1720613 6.66137615,10.1668171 C6.65660873,10.161573 6.65429118,10.1545517 6.655,10.1475 L6.67,9.98 C6.74093947,9.14276347 6.53639557,8.30527472 6.0875,7.595 L4.8375,5.95 L4.815,5.925 C4.75901525,5.86843492 4.72757736,5.79208576 4.7275,5.7125 L4.7275,3.33 C4.7317664,3.22724412 4.78712027,3.13342401 4.875,3.08 C5.3913059,2.78001132 5.97786947,2.62215671 6.575,2.6225 L10.25,2.6225 C10.4805789,2.6225 10.6675,2.80942112 10.6675,3.04 C10.6675,3.27057888 10.4805789,3.4575 10.25,3.4575 L9.615,3.4575 C9.47692881,3.4575 9.365,3.56942881 9.365,3.7075 C9.365,3.84557119 9.47692881,3.9575 9.615,3.9575 L10.475,3.9575 C10.6924049,3.97436119 10.8602171,4.15569219 10.8602171,4.37375 C10.8602171,4.59180781 10.6924049,4.77313881 10.475,4.79 L9.52,4.79 C9.38192881,4.79 9.27,4.90192881 9.27,5.04 C9.27,5.17807119 9.38192881,5.29 9.52,5.29 L10.79,5.29 C10.9464125,5.27786918 11.0964229,5.35444673 11.1783429,5.48824192 C11.2602629,5.62203711 11.2602629,5.79046289 11.1783429,5.92425808 C11.0964229,6.05805327 10.9464125,6.13463082 10.79,6.1225 L9.65,6.1225 C9.51192881,6.1225 9.4,6.23442881 9.4,6.3725 C9.4,6.51057119 9.51192881,6.6225 9.65,6.6225 L10.46,6.6225 C10.6905789,6.6225 10.8775,6.80942112 10.8775,7.04 C10.8775,7.27057888 10.6905789,7.4575 10.46,7.4575 L8.37,7.4575 C8.16346449,7.45510664 7.9682753,7.55177177 7.845,7.7175 Z" id="Shape" fill="#0064FF" fill-rule="nonzero"></path>
        </g>
    </g>
</svg>