<?xml version="1.0" encoding="UTF-8"?>
<svg width="21px" height="21px" viewBox="0 0 21 21" version="1.1" xmlns="http://www.w3.org/2000/svg" xmlns:xlink="http://www.w3.org/1999/xlink">
    <!-- Generator: Sketch 51.2 (57519) - http://www.bohemiancoding.com/sketch -->
    <title>Slice 2 Copy 3</title>
    <desc>Created with Sketch.</desc>
    <defs></defs>
    <g id="transcription" stroke="none" stroke-width="1" fill="none" fill-rule="evenodd">
        <g id="clock1" transform="translate(3.000000, 3.000000)" fill="#0064FF">
            <path d="M7.5,15 C3.35786438,15 0,11.6421356 0,7.5 C0,3.35786438 3.35786438,0 7.5,0 C11.6421356,0 15,3.35786438 15,7.5 C15,11.6421356 11.6421356,15 7.5,15 L7.5,15 Z M7.5,1.25 C4.04822031,1.25 1.25,4.04822031 1.25,7.5 C1.25,10.9517797 4.04822031,13.75 7.5,13.75 C10.9517797,13.75 13.75,10.9517797 13.75,7.5 C13.75,4.04822031 10.9517797,1.25 7.5,1.25 L7.5,1.25 Z M8.89375,9.8125 L7.0625,7.975625 C6.93342304,7.8487883 6.86512153,7.67257039 6.875,7.491875 L6.875,4.375 C6.875,4.02982203 7.15482203,3.75 7.5,3.75 C7.84517797,3.75 8.125,4.02982203 8.125,4.375 L8.125,7.206875 L9.8125,8.894375 C10.0660332,9.14808081 10.0658933,9.55927928 9.8121875,9.8128125 C9.55848169,10.0663457 9.14728322,10.0662058 8.89375,9.8125 L8.89375,9.8125 Z"></path>
        </g>
    </g>
</svg>