<?xml version="1.0" encoding="UTF-8"?>
<svg width="22px" height="22px" viewBox="0 0 22 22" version="1.1" xmlns="http://www.w3.org/2000/svg" xmlns:xlink="http://www.w3.org/1999/xlink">
    <!-- Generator: Sketch 52.2 (67145) - http://www.bohemiancoding.com/sketch -->
    <title>ANALYTICS Copy 12</title>
    <desc>Created with Sketch.</desc>
    <g id="dashboard" stroke="none" stroke-width="1" fill="none" fill-rule="evenodd" opacity="0.787721549">
        <g id="contact2-copy-6" transform="translate(3.000000, 1.000000)">
            <path d="M18.35981,8.67331731 L20.3068566,8.67331731 C20.5097728,8.67331731 20.6515152,8.82508376 20.6515152,9.01229718 L20.6515152,9.7958759 C20.6515152,9.97844555 20.4972063,10.1348558 20.3068566,10.1348558 L18.35981,10.1348558 C18.1568939,10.1348558 18.0151515,9.98308931 18.0151515,9.7958759 L18.0151515,9.01229718 C18.0151515,8.82972752 18.1694604,8.67331731 18.35981,8.67331731 Z M14.6689009,8.67331731 L16.6159476,8.67331731 C16.8188637,8.67331731 16.9606061,8.82508376 16.9606061,9.01229718 L16.9606061,9.7958759 C16.9606061,9.97844555 16.8062972,10.1348558 16.6159476,10.1348558 L14.6689009,10.1348558 C14.4659848,10.1348558 14.3242424,9.98308931 14.3242424,9.7958759 L14.3242424,9.01229718 C14.3242424,8.82972752 14.4785513,8.67331731 14.6689009,8.67331731 Z M9.22041608,8.67331731 L11.1674627,8.67331731 C11.3703789,8.67331731 11.5121212,8.82508376 11.5121212,9.01229718 L11.5121212,9.7958759 C11.5121212,9.97844555 11.3578123,10.1348558 11.1674627,10.1348558 L9.22041608,10.1348558 C9.01749994,10.1348558 8.87575758,9.98308931 8.87575758,9.7958759 L8.87575758,9.01229718 C8.87575758,8.82972752 9.03006644,8.67331731 9.22041608,8.67331731 Z" id="Rectangle-208" fill="#9B9B9B" transform="translate(14.763636, 9.404087) rotate(-270.000000) translate(-14.763636, -9.404087) "></path>
            <path d="M4.85547719,11.3040865 L12.4552734,11.3040865 L12.4552734,11.4867788 L4.85547719,11.4867788 L4.85547719,11.3040865 Z M4.85547719,13.7932692 L12.4552734,13.7932692 L12.4552734,13.9759615 L4.85547719,13.9759615 L4.85547719,13.7932692 Z M4.85547719,16.2824519 L12.4552734,16.2824519 L12.4552734,16.4651442 L4.85547719,16.4651442 L4.85547719,16.2824519 Z M1.95684777,11.3878205 C1.95684777,10.981414 2.27160516,10.6570513 2.65987808,10.6570513 C3.05085796,10.6570513 3.36290838,10.9842278 3.36290838,11.3878205 C3.36290838,11.794227 3.04815099,12.1185897 2.65987808,12.1185897 C2.2688982,12.1185897 1.95684777,11.7914132 1.95684777,11.3878205 Z M1.95684777,13.7628205 C1.95684777,13.356414 2.27160516,13.0320513 2.65987808,13.0320513 C3.05085796,13.0320513 3.36290838,13.3592278 3.36290838,13.7628205 C3.36290838,14.169227 3.04815099,14.4935897 2.65987808,14.4935897 C2.2688982,14.4935897 1.95684777,14.1664132 1.95684777,13.7628205 Z M1.95684777,16.3205128 C1.95684777,15.9141063 2.27160516,15.5897436 2.65987808,15.5897436 C3.05085796,15.5897436 3.36290838,15.9169201 3.36290838,16.3205128 C3.36290838,16.7269193 3.04815099,17.0512821 2.65987808,17.0512821 C2.2688982,17.0512821 1.95684777,16.7241055 1.95684777,16.3205128 Z" id="Rectangle-214" fill="#4A4A4A"></path>
            <path d="M0,0.828623498 C0,0.371012883 0.322189426,0 0.719630224,0 L13.692491,0 C14.0908967,0 14.4121212,0.370987377 14.4121212,0.828623498 L14.4121212,18.1713765 C14.4121212,18.6289871 14.0899318,19 13.692491,19 L0.719630224,19 C0.321224501,19 0,18.6290126 0,18.1713765 L0,0.828623498 Z M0.475124875,1.04561458 L0.475124875,17.9543854 C0.475124875,18.2255523 0.704034049,18.4519231 0.986407825,18.4519231 L13.4257134,18.4519231 C13.7033403,18.4519231 13.9369963,18.2291679 13.9369963,17.9543854 L13.9369963,1.04561458 C13.9369963,0.774447691 13.7080872,0.548076923 13.4257134,0.548076923 L0.986407825,0.548076923 C0.708780862,0.548076923 0.475124875,0.77083212 0.475124875,1.04561458 Z" id="Rectangle-205" fill="#4A4A4A" fill-rule="nonzero"></path>
            <ellipse id="Oval-34" fill="#4A4A4A" cx="7.20606061" cy="6.02884615" rx="3.51515152" ry="3.65384615"></ellipse>
            <path d="M7.62136405,6.40651339 C7.62136405,6.40651339 7.92724507,6.08013314 7.99386319,5.6412403 C8.17321303,5.6412403 8.28395485,5.17464124 8.10460501,5.01046663 C8.11208874,4.83761917 8.33512968,3.65384615 7.20608224,3.65384615 C6.07703479,3.65384615 6.30007573,4.83761917 6.30755946,5.01046663 C6.12816636,5.17459436 6.23895144,5.6412403 6.41825802,5.6412403 C6.4849194,6.08013314 6.79080042,6.40651339 6.79080042,6.40651339 C6.79080042,6.40651339 6.7884212,6.71503227 6.68434119,6.73289365 C6.34904438,6.7904157 5.0969697,7.38565415 5.0969697,8.03846154 L9.31515152,8.03846154 C9.31515152,7.38565415 8.06312009,6.7904157 7.72782328,6.73289365 C7.62374327,6.71503227 7.62136405,6.40651339 7.62136405,6.40651339 Z" id="user" fill="#FFFFFF"></path>
        </g>
    </g>
</svg>