<?xml version="1.0" encoding="UTF-8"?>
<svg width="22px" height="22px" viewBox="0 0 22 22" version="1.1" xmlns="http://www.w3.org/2000/svg" xmlns:xlink="http://www.w3.org/1999/xlink">
    <!-- Generator: Sketch 52.2 (67145) - http://www.bohemiancoding.com/sketch -->
    <title>ANALYTICS Copy 8</title>
    <desc>Created with Sketch.</desc>
    <g id="dashboard" stroke="none" stroke-width="1" fill="none" fill-rule="evenodd">
        <path d="M19.5,18.33345 L18.33345,19.5 L14.832975,16.00035 L15.999525,14.832975 L19.5,18.33345 Z M9.6,14.55 C6.8709,14.55 4.65,12.329925 4.65,9.6 C4.65,6.8709 6.8709,4.65 9.6,4.65 C12.3291,4.65 14.55,6.8709 14.55,9.6 C14.55,12.329925 12.3291,14.55 9.6,14.55 L9.6,14.55 Z M9.6,3 C5.95515,3 3,5.95515 3,9.6 C3,13.24485 5.95515,16.2 9.6,16.2 C13.24485,16.2 16.2,13.24485 16.2,9.6 C16.2,5.95515 13.24485,3 9.6,3 L9.6,3 Z" id="search_left-[#1504]" fill="#718690"></path>
    </g>
</svg>