<?xml version="1.0" encoding="UTF-8"?>
<svg width="22px" height="22px" viewBox="0 0 22 22" version="1.1" xmlns="http://www.w3.org/2000/svg" xmlns:xlink="http://www.w3.org/1999/xlink">
    <!-- Generator: Sketch 52.2 (67145) - http://www.bohemiancoding.com/sketch -->
    <title>ANALYTICS Copy 7</title>
    <desc>Created with Sketch.</desc>
    <g id="dashboard" stroke="none" stroke-width="1" fill="none" fill-rule="evenodd" stroke-linecap="round" stroke-linejoin="round">
        <g id="Group-5-Copy-2" transform="translate(4.000000, 6.000000)" stroke="blue" stroke-width="1.5">
            <path d="M7,10.7434811 C4.58487689,10.7434811 2.613346,9.73450792 1.07458395,8.07201963 C0.542641072,7.49730517 0.100823598,6.88357923 -0.257367675,6.26894468 C-0.474930384,5.89562023 -0.618662919,5.59915838 -0.693605443,5.41697953 L-0.807882485,5.13918184 L-0.698802875,4.85930251 C-0.624831344,4.66950441 -0.482218472,4.35902696 -0.265945843,3.96732014 C0.0907260583,3.32132616 0.530858595,2.6760098 1.06110171,2.07133794 C2.59946757,0.317035918 4.57482368,-0.75 7,-0.75 C9.42517632,-0.75 11.4005324,0.317035918 12.9388983,2.07133794 C13.4691414,2.6760098 13.9092739,3.32132616 14.2659458,3.96732014 C14.4822185,4.35902696 14.6248313,4.66950441 14.6988029,4.85930251 L14.8078825,5.13918184 L14.6936054,5.41697953 C14.6186629,5.59915838 14.4749304,5.89562023 14.2573677,6.26894468 C13.8991764,6.88357923 13.4573589,7.49730517 12.9254161,8.07201963 C11.386654,9.73450792 9.41512311,10.7434811 7,10.7434811 Z" id="Stroke-69"></path>
            <path d="M7,7.74543677 C5.48189588,7.74543677 4.25,6.51434395 4.25,4.99674055 C4.25,3.47913715 5.48189588,2.24804433 7,2.24804433 C8.51810412,2.24804433 9.75,3.47913715 9.75,4.99674055 C9.75,6.51434395 8.51810412,7.74543677 7,7.74543677 Z" id="Stroke-70"></path>
        </g>
    </g>
</svg>