<?xml version="1.0" encoding="UTF-8"?>
<svg width="22px" height="22px" viewBox="0 0 22 22" version="1.1" xmlns="http://www.w3.org/2000/svg" xmlns:xlink="http://www.w3.org/1999/xlink">
    <!-- Generator: Sketch 52.2 (67145) - http://www.bohemiancoding.com/sketch -->
    <title>ANALYTICS</title>
    <desc>Created with Sketch.</desc>
    <g id="dashboard" stroke="none" stroke-width="1" fill="none" fill-rule="evenodd">
        <path d="M16.6521739,10.3427805 L16.6521739,14.7303902 C16.6521739,14.9736098 16.4595652,15.1707317 16.2173913,15.1707317 C15.9769565,15.1707317 15.7826087,14.9705366 15.7826087,14.7303902 L15.7826087,10.3427805 C15.7826087,10.099561 15.9752174,9.90243902 16.2173913,9.90243902 C16.4578261,9.90243902 16.6521739,10.1026341 16.6521739,10.3427805 L16.6521739,10.3427805 Z M18.3913043,11.2173171 L18.3913043,14.7339024 C18.3913043,14.9753659 18.1986957,15.1707317 17.9565217,15.1707317 C17.716087,15.1707317 17.5217391,14.9705366 17.5217391,14.7339024 L17.5217391,11.2173171 C17.5217391,10.9758537 17.7143478,10.7804878 17.9565217,10.7804878 C18.1969565,10.7804878 18.3913043,10.9806829 18.3913043,11.2173171 L18.3913043,11.2173171 Z M14.9130435,11.2173171 L14.9130435,14.7339024 C14.9130435,14.9753659 14.7204348,15.1707317 14.4782609,15.1707317 C14.2378261,15.1707317 14.0434783,14.9705366 14.0434783,14.7339024 L14.0434783,11.2173171 C14.0434783,10.9758537 14.236087,10.7804878 14.4782609,10.7804878 C14.7186957,10.7804878 14.9130435,10.9806829 14.9130435,11.2173171 L14.9130435,11.2173171 Z M13.173913,12.5379024 L13.173913,14.7303902 C13.173913,14.9736098 12.9813043,15.1707317 12.7391304,15.1707317 C12.4986957,15.1707317 12.3043478,14.978878 12.3043478,14.7303902 L12.3043478,12.5379024 C12.3043478,12.2946829 12.4969565,12.097561 12.7391304,12.097561 C12.9795652,12.097561 13.173913,12.2898537 13.173913,12.5379024 L13.173913,12.5379024 Z M9.21521739,12.5822439 C9.21347826,12.5919024 9.2126087,12.602 9.21043478,12.6112195 C9.18043478,12.763122 9.13608696,12.9101951 9.08130435,13.052439 C9.07565217,13.0664878 9.07130435,13.0814146 9.06565217,13.0959024 C9.00956522,13.2341951 8.94043478,13.3667805 8.86130435,13.4940976 C8.8526087,13.5081463 8.84391304,13.5235122 8.83521739,13.537561 C8.8273913,13.5494146 8.81695652,13.5586341 8.81,13.5700488 C8.45913043,13.232439 8.40869565,13.1837073 8.19086957,12.9734146 C8.10478261,12.890878 8.10478261,12.890878 8.07043478,12.8575122 C8.05956522,12.8469756 8.05956522,12.8469756 8.05521739,12.8430244 C8.05434783,12.8417073 8.05434783,12.8417073 8.05347826,12.8408293 L8.05304348,12.8403902 C8.0526087,12.8399512 8.0526087,12.8399512 8.05086957,12.8390732 C8.04652174,12.8346829 8.04652174,12.8346829 8.03608696,12.8241463 C8.00173913,12.7912195 8.00173913,12.7912195 7.91565217,12.7082439 C7.66086957,12.4628293 7.63521739,12.4378049 7.08695652,11.9096585 L7.08695652,10.5622927 L7.08695652,10.5609756 L7.08695652,10.5368293 L7.08695652,10.369122 L7.08695652,9.50292683 C8.32,9.71190244 9.26086957,10.7923415 9.26086957,12.097561 C9.26086957,12.2621951 9.24391304,12.4241951 9.21521739,12.5822439 L9.21521739,12.5822439 Z M6.65217391,14.7317073 C5.21173913,14.7317073 4.04347826,13.5524878 4.04347826,12.097561 C4.04347826,10.7923415 4.98434783,9.71190244 6.2173913,9.50292683 L6.2173913,10.369122 L6.2173913,10.5368293 L6.2173913,10.5609756 L6.2173913,10.5622927 L6.2173913,12.097561 C6.2173913,12.2178537 6.26565217,12.332439 6.35217391,12.4154146 C7.04043478,13.0779024 7.04043478,13.0779024 7.31521739,13.3435122 C7.40130435,13.4260488 7.40130435,13.4260488 7.43565217,13.4598537 C7.44608696,13.4699512 7.44608696,13.4699512 7.45043478,13.4739024 C7.45217391,13.4752195 7.45217391,13.4752195 7.4526087,13.4760976 L7.45304348,13.4760976 L7.45304348,13.4765366 C7.45391304,13.4769756 7.45391304,13.4769756 7.45478261,13.4782927 C7.45913043,13.4822439 7.45913043,13.4822439 7.47,13.4927805 C7.50434783,13.5257073 7.50434783,13.5257073 7.59043478,13.6086829 C7.80869565,13.8185366 7.85869565,13.8672683 8.21043478,14.2066341 C7.77565217,14.5350244 7.2373913,14.7317073 6.65217391,14.7317073 L6.65217391,14.7317073 Z M6.65217391,8.58536585 C5.61173913,8.58536585 4.68086957,9.04941463 4.04347826,9.77995122 C3.50391304,10.3989756 3.17391304,11.2085366 3.17391304,12.097561 C3.17391304,12.9865854 3.50391304,13.7961463 4.04347826,14.4151707 C4.68086957,15.1457073 5.61173913,15.6097561 6.65217391,15.6097561 C7.6373913,15.6097561 8.52478261,15.194878 9.1573913,14.5301951 C9.16086957,14.5266829 9.16478261,14.5258049 9.16826087,14.5227317 C9.19782609,14.4906829 9.22434783,14.456439 9.25304348,14.4239512 C9.28869565,14.3826829 9.32521739,14.3422927 9.35956522,14.3001463 C9.39608696,14.2549268 9.42913043,14.2079512 9.4626087,14.1605366 C9.49391304,14.1175122 9.52565217,14.0749268 9.55521739,14.0297073 C9.5873913,13.9805366 9.61652174,13.9291707 9.64652174,13.8786829 C9.6726087,13.8330244 9.70043478,13.7886829 9.72478261,13.7412683 C9.7526087,13.6890244 9.77652174,13.6350244 9.80130435,13.5819024 C9.82391304,13.5336098 9.8473913,13.4857561 9.8673913,13.4361463 C9.88956522,13.3821463 9.90782609,13.3259512 9.9273913,13.2706341 C9.94521739,13.2192683 9.96478261,13.1692195 9.98,13.1169756 C9.99782609,13.0594634 10.0108696,12.9997561 10.0252174,12.9404878 C10.0378261,12.889122 10.0521739,12.8395122 10.0626087,12.7868293 C10.076087,12.7183415 10.0847826,12.6489756 10.093913,12.5796098 C10.1,12.5348293 10.1082609,12.4922439 10.1130435,12.4470244 C10.1243478,12.331561 10.1304348,12.2152195 10.1304348,12.097561 C10.1304348,10.1579512 8.57304348,8.58536585 6.65217391,8.58536585 L6.65217391,8.58536585 Z M6.2173913,4.19512195 C6.2173913,4.43790244 6.02304348,4.63414634 5.7826087,4.63414634 C5.54217391,4.63414634 5.34782609,4.43790244 5.34782609,4.19512195 C5.34782609,3.95234146 5.54217391,3.75609756 5.7826087,3.75609756 C6.02304348,3.75609756 6.2173913,3.95234146 6.2173913,4.19512195 L6.2173913,4.19512195 Z M4.91304348,4.19512195 C4.91304348,4.43790244 4.71869565,4.63414634 4.47826087,4.63414634 C4.23782609,4.63414634 4.04347826,4.43790244 4.04347826,4.19512195 C4.04347826,3.95234146 4.23782609,3.75609756 4.47826087,3.75609756 C4.71869565,3.75609756 4.91304348,3.95234146 4.91304348,4.19512195 L4.91304348,4.19512195 Z M3.60869565,4.19512195 C3.60869565,4.43790244 3.41434783,4.63414634 3.17391304,4.63414634 C2.93347826,4.63414634 2.73913043,4.43790244 2.73913043,4.19512195 C2.73913043,3.95234146 2.93347826,3.75609756 3.17391304,3.75609756 C3.41434783,3.75609756 3.60869565,3.95234146 3.60869565,4.19512195 L3.60869565,4.19512195 Z M20.1304348,5.51219512 L8.39130435,5.51219512 L7.08695652,5.51219512 L5.7826087,5.51219512 L3.17391304,5.51219512 L1.86956522,5.51219512 L1.86956522,3.31707317 L1.86956522,3.31619512 C1.86956522,3.07604878 2.06608696,2.87804878 2.30434783,2.87804878 L3.17391304,2.87804878 L5.7826087,2.87804878 L7.08695652,2.87804878 L8.39130435,2.87804878 L19.6956522,2.87804878 C19.936087,2.87804878 20.1304348,3.07385366 20.1304348,3.31619512 L20.1304348,3.31707317 L20.1304348,5.51219512 Z M20.1304348,18.6838049 C20.1304348,18.9239512 19.933913,19.1219512 19.6956522,19.1219512 L2.30434783,19.1219512 C2.06391304,19.1219512 1.86956522,18.9261463 1.86956522,18.6838049 L1.86956522,17.804878 L1.86956522,8.58536585 L1.86956522,6.82926829 L1.86956522,6.3902439 L3.17391304,6.3902439 L4.04347826,6.3902439 L5.7826087,6.3902439 L7.08695652,6.3902439 L8.39130435,6.3902439 L12.3043478,6.3902439 L20.1304348,6.3902439 L20.1304348,8.58536585 L20.1304348,17.3658537 L20.1304348,18.6838049 Z M19.6956522,2 L8.39130435,2 L7.08695652,2 L5.7826087,2 L3.17391304,2 L2.30434783,2 C2.15130435,2 2.00608696,2.03160976 1.86956522,2.08121951 C1.36565217,2.26297561 1,2.74458537 1,3.31619512 L1,3.31707317 L1,6.3902439 L1,6.82926829 L1,8.58536585 L1,17.804878 L1,18.6838049 C1,19.4112683 1.58434783,20 2.30434783,20 L19.6956522,20 C20.4121739,20 21,19.4103902 21,18.6838049 L21,8.58536585 L21,3.31707317 L21,3.31619512 C21,2.58873171 20.4156522,2 19.6956522,2 L19.6956522,2 Z" id="ANALYTICS-Copy" fill="#918DA5"></path>
    </g>
</svg>