<?xml version="1.0" encoding="UTF-8"?>
<svg xmlns="http://www.w3.org/2000/svg" xmlns:xlink="http://www.w3.org/1999/xlink" width="40pt" height="40pt" viewBox="0 0 40 40" version="1.1">
<g id="surface1">
<path style="fill:none;stroke-width:1;stroke-linecap:round;stroke-linejoin:round;stroke:rgb(65.490196%,67.058824%,70.196078%);stroke-opacity:1;stroke-miterlimit:4;" d="M 13.730664 1.729492 C 13.326758 1.327734 12.536133 0.999023 11.971094 0.999023 L 4.999414 0.999023 C 3.899414 0.999023 2.999219 1.899219 2.999219 2.999219 L 2.999219 19.000781 C 2.999219 20.100781 3.899414 21.000977 4.999414 21.000977 L 17.000586 21.000977 C 18.100586 21.000977 19.000781 20.100781 19.000781 19.000781 L 19.000781 8.022266 C 19.000781 7.457227 18.676367 6.677344 18.270313 6.271289 Z M 7.128516 16.897461 L 7.128516 14.194727 L 9.090039 12.793945 L 11.464063 14.895117 L 13.219336 14.095898 L 15.283984 15.296875 L 15.283984 16.897461 Z M 13.322461 12.793945 C 12.497461 12.793945 11.773438 12.076367 11.773438 11.255664 C 11.773438 10.434961 12.497461 9.717383 13.322461 9.717383 C 14.147461 9.717383 14.871484 10.434961 14.871484 11.255664 C 14.871484 12.076367 14.147461 12.793945 13.322461 12.793945 Z M 11.773438 7.665625 L 11.773438 2.539453 M 16.936133 7.665625 L 11.773438 7.665625 " transform="matrix(1.818182,0,0,1.818182,0,0)"/>
</g>
</svg>
