<?xml version="1.0" encoding="UTF-8"?>
<svg width="22px" height="22px" viewBox="0 0 22 22" version="1.1" xmlns="http://www.w3.org/2000/svg" xmlns:xlink="http://www.w3.org/1999/xlink">
    <!-- Generator: Sketch 52.2 (67145) - http://www.bohemiancoding.com/sketch -->
    <title>ANALYTICS Copy 5</title>
    <desc>Created with Sketch.</desc>
    <g id="dashboard" stroke="none" stroke-width="1" fill="none" fill-rule="evenodd">
        <path d="M18.969697,16 L5.05906061,16 C4.68351515,16 4.33475758,16.106 4.03030303,16.2785 L4.03030303,3 C4.03030303,2.449 4.49290909,2 5.05906061,2 L18.969697,2 L18.969697,16 Z M18.969697,18 L6.60606061,18 L6.60606061,19 L18.969697,19 L18.969697,20 L5.05906061,20 C4.67218182,20 4.33836364,19.788 4.16269697,19.4805 C4.08130303,19.3365 4.03030303,19.173 4.03030303,18.995 L4.03030303,18.005 C4.03030303,17.4505 4.49393939,17 5.05906061,17 L18.969697,17 L18.969697,18 Z M18.969697,1 L20,1 L20,2 L20,16 L20,17 L20,20 L20,21 L18.969697,21 L5.05906061,21 C4.23687879,21 3.53318182,20.53 3.20348485,19.8515 C3.07624242,19.592 3,19.3055 3,19 L3,18.995 L3,18.005 L3,3 C3,1.8955 3.92624242,1 5.05906061,1 L18.969697,1 Z M9.18181818,7.5 L11.7575758,6 L14.3333333,7.5 L14.3333333,10.5 L11.7575758,12 L9.18181818,10.5 L9.18181818,7.5 Z M8.65172727,11.3575 L11.2274848,12.8575 C11.5535758,13.0475 11.9615758,13.0475 12.2876667,12.8575 L14.8634242,11.3575 C15.1735455,11.177 15.3636364,10.851 15.3636364,10.5 L15.3636364,7.5 C15.3636364,7.149 15.1735455,6.823 14.8634242,6.6425 L12.2876667,5.1425 C11.9615758,4.9525 11.5535758,4.9525 11.2274848,5.1425 L8.65172727,6.6425 C8.34160606,6.823 8.15151515,7.149 8.15151515,7.5 L8.15151515,10.5 C8.15151515,10.851 8.34160606,11.177 8.65172727,11.3575 Z" id="BOOK-Copy" fill="#918DA5"></path>
    </g>
</svg>