<?xml version="1.0" encoding="UTF-8"?>
<svg width="100px" height="100px" viewBox="0 0 100 100" version="1.1" xmlns="http://www.w3.org/2000/svg" xmlns:xlink="http://www.w3.org/1999/xlink">
    <!-- Generator: Sketch 52.2 (67145) - http://www.bohemiancoding.com/sketch -->
    <title>1B</title>
    <desc>Created with Sketch.</desc>
    <g id="dashboard" stroke="none" stroke-width="1" fill="none" fill-rule="evenodd">
        <g id="Recruiters-popup-delete" transform="translate(-100.000000, 100.000000)">
            <rect fill="#FFFFFF" x="0" y="0" width="1440" height="1040"></rect>
            <g id="1B" transform="translate(694.000000, 392.000000)" fill="#1A1919">
                <path d="M35.3322,20.7954 C41.2992,20.8584 43.8606,25.1802 44.4366,27.6138 C45.144,29.8602 45.0198,34.443 40.2714,38.304 C38.871,39.4416 37.935,40.2048 37.3302,40.6998 L37.3302,42.5646 C37.3302,44.0568 36.1206,45.2646 34.6302,45.2646 C33.138,45.2646 31.9302,44.0568 31.9302,42.5646 L31.9302,39.4218 C31.9302,38.619 32.2884,37.8576 32.9076,37.3446 C32.9076,37.3446 33.7428,36.6498 36.864,34.1136 C39.879,31.662 39.3354,29.4174 39.2634,29.1708 C39.2418,29.1006 39.1986,28.944 39.1842,28.872 C39.042,28.2852 38.3112,26.2278 35.2764,26.1954 C35.2548,26.1954 35.235,26.1954 35.2134,26.1954 C31.95,26.1954 31.2822,28.8432 31.257,28.9566 C30.9114,30.4092 29.448,31.3056 28.0062,30.96 C26.5536,30.6162 25.6572,29.16 26.0028,27.7092 C26.5734,25.308 29.2302,20.7954 35.2098,20.7954 C35.2494,20.7954 35.2908,20.7954 35.3322,20.7954 Z M34.9758,47.6262 C36.5256,47.6262 37.8702,48.969 37.8702,50.5206 C37.8702,52.0722 36.5256,53.415 34.9758,53.415 C33.4224,53.415 32.0796,52.0722 32.0796,50.5206 C32.0796,48.969 33.4224,47.6262 34.9758,47.6262 Z M35.9802,65.3076 C19.8504,65.3076 6.7302,52.1874 6.7302,36.0576 C6.7302,19.9296 19.8504,6.8076 35.9802,6.8076 C52.1082,6.8076 65.2302,19.9296 65.2302,36.0576 C65.2302,52.1874 52.1082,65.3076 35.9802,65.3076 Z M35.9802,1.4076 C16.875,1.4076 1.3302,16.9524 1.3302,36.0576 C1.3302,55.1628 16.875,70.7076 35.9802,70.7076 C55.0854,70.7076 70.6302,55.1628 70.6302,36.0576 C70.6302,16.9524 55.0854,1.4076 35.9802,1.4076 Z"></path>
            </g>
        </g>
    </g>
</svg>