<?xml version="1.0" encoding="UTF-8"?>
<svg width="22px" height="22px" viewBox="0 0 22 22" version="1.1" xmlns="http://www.w3.org/2000/svg" xmlns:xlink="http://www.w3.org/1999/xlink">
    <!-- Generator: Sketch 52.2 (67145) - http://www.bohemiancoding.com/sketch -->
    <title>ANALYTICS Copy 6</title>
    <desc>Created with Sketch.</desc>
    <g id="dashboard" stroke="none" stroke-width="1" fill="none" fill-rule="evenodd">
        <path d="M11.0077519,20 C6.04651163,20 2,15.9655172 2,11 C2,6.77931034 4.86821705,3.1637931 8.97674419,2.21724138 C9.31782946,2.13965517 9.65891473,2.35689655 9.73643411,2.69827586 C9.81395349,3.03965517 9.59689922,3.38103448 9.25581395,3.45862069 C5.73643411,4.28103448 3.27131783,7.36896552 3.27131783,11 C3.27131783,15.2672414 6.74418605,18.7431034 11.0077519,18.7431034 C15.2713178,18.7431034 18.744186,15.2672414 18.744186,11 C18.744186,7.35344828 16.2635659,4.25 12.7131783,3.45862069 C12.372093,3.38103448 12.1550388,3.03965517 12.2325581,2.69827586 C12.3100775,2.35689655 12.6511628,2.13965517 12.9922481,2.21724138 C17.1162791,3.14827586 20,6.7637931 20,11 C20,15.9655172 15.9689922,20 11.0077519,20 Z M10.372093,2.6362069 C10.372093,2.27931034 10.6511628,2 11.0077519,2 C11.3643411,2 11.6434109,2.27931034 11.6434109,2.6362069 L11.6434109,11 C11.6434109,11.3568966 11.3643411,11.6362069 11.0077519,11.6362069 C10.6511628,11.6362069 10.372093,11.3568966 10.372093,11 L10.372093,2.6362069 Z" id="power-copy-3" fill="#918DA5"></path>
    </g>
</svg>