<?xml version="1.0" encoding="UTF-8"?>
<svg width="72px" height="72px" viewBox="0 0 72 72" version="1.1" xmlns="http://www.w3.org/2000/svg" xmlns:xlink="http://www.w3.org/1999/xlink">
    <!-- Generator: Sketch 52.1 (67048) - http://www.bohemiancoding.com/sketch -->
    <title>feasibility copy</title>
    <desc>Created with Sketch.</desc>
    <g id="Recruiters" stroke="none" stroke-width="1" fill="none" fill-rule="evenodd">
        <g id="feasibility-copy" fill-rule="nonzero">
            <path d="M36,40.8 C16.117776,40.8 0,54.768732 0,72 L72,72 C72,54.768732 55.882224,40.8 36,40.8 Z" id="Shape" fill="#0074E4"></path>
            <path d="M22.344828,66.800004 C18.237612,66.800004 14.896548,63.883884 14.896548,60.3 L17.379348,60.3 C17.379348,62.45058 19.60692,64.2 22.344864,64.2 C25.082808,64.2 27.31038,62.45058 27.31038,60.3 L29.79318,60.3 C29.793108,63.883884 26.452044,66.800004 22.344828,66.800004 Z" id="Shape" fill="#FFFFFF"></path>
            <path d="M49.655172,66.800004 C45.547956,66.800004 42.206892,63.883884 42.206892,60.3 L44.689692,60.3 C44.689692,62.45058 46.917264,64.2 49.655208,64.2 C52.393152,64.2 54.620724,62.45058 54.620724,60.3 L57.103524,60.3 C57.103452,63.883884 53.7624,66.800004 49.655172,66.800004 Z" id="Shape" fill="#FFFFFF"></path>
            <circle id="Oval" fill="#18BAEB" cx="50.4" cy="34.8" r="3.6"></circle>
            <circle id="Oval" fill="#072A44" cx="21.6" cy="34.8" r="3.6"></circle>
            <path d="M31.167036,13.2 C33.7518808,11.3066432 34.3842214,7.7119703 32.6006769,5.05016798 C30.8171324,2.38836567 27.2520657,1.60617167 24.517968,3.27678 C23.5066212,1.26764595 21.4493203,-6.68460298e-06 19.2,-6.68460297e-06 C16.9506797,-6.68460297e-06 14.8933788,1.26764595 13.882032,3.27678 C11.1484708,1.61693076 7.59273441,2.4022658 5.81256051,5.05903773 C4.03238661,7.71580967 4.658274,11.3030478 7.232964,13.2 C4.64811923,15.0933568 4.01577858,18.6880297 5.7993231,21.349832 C7.58286761,24.0116343 11.1479343,24.7938283 13.882032,23.12322 C14.8933788,25.1323541 16.9506797,26.4000067 19.2,26.4000067 C21.4493203,26.4000067 23.5066212,25.1323541 24.517968,23.12322 C27.2515292,24.7830692 30.8072656,23.9977342 32.5874395,21.3409623 C34.3676134,18.6841903 33.741726,15.0969522 31.167036,13.2 Z" id="Shape" fill="#072A44"></path>
            <path d="M64.767036,13.2 C67.3518808,11.3066432 67.9842214,7.7119703 66.2006769,5.05016798 C64.4171324,2.38836567 60.8520657,1.60617167 58.117968,3.27678 C57.1066212,1.26764595 55.0493203,-6.68460298e-06 52.8,-6.68460298e-06 C50.5506797,-6.68460298e-06 48.4933788,1.26764595 47.482032,3.27678 C44.7484708,1.61693076 41.1927344,2.4022658 39.4125605,5.05903773 C37.6323866,7.71580967 38.258274,11.3030478 40.832964,13.2 C38.2481192,15.0933568 37.6157786,18.6880297 39.3993231,21.349832 C41.1828676,24.0116343 44.7479343,24.7938283 47.482032,23.12322 C48.4933788,25.1323541 50.5506797,26.4000067 52.8,26.4000067 C55.0493203,26.4000067 57.1066212,25.1323541 58.117968,23.12322 C60.8515292,24.7830692 64.4072656,23.9977342 66.1874395,21.3409623 C67.9676134,18.6841903 67.341726,15.0969522 64.767036,13.2 Z" id="Shape" fill="#18BAEB"></path>
            <g id="Group" transform="translate(10.800000, 7.200000)" fill="#FFFFFF">
                <polygon id="Shape" points="0 0 2.4 0 2.4 12 0 12"></polygon>
                <polygon id="Shape" points="4.8 2.4 7.2 2.4 7.2 12 4.8 12"></polygon>
                <polygon id="Shape" points="9.6 6 12 6 12 12 9.6 12"></polygon>
                <polygon id="Shape" points="14.4 8.4 16.8 8.4 16.8 12 14.4 12"></polygon>
            </g>
            <polygon id="Shape" fill="#FFFFFF" points="58.8 7.2 61.2 7.2 61.2 19.2 58.8 19.2"></polygon>
            <polygon id="Shape" fill="#FFFFFF" points="54 9.6 56.4 9.6 56.4 19.2 54 19.2"></polygon>
            <polygon id="Shape" fill="#FFFFFF" points="49.2 13.2 51.6 13.2 51.6 19.2 49.2 19.2"></polygon>
            <polygon id="Shape" fill="#FFFFFF" points="44.4 15.6 46.8 15.6 46.8 19.2 44.4 19.2"></polygon>
        </g>
    </g>
</svg>