<?xml version="1.0" encoding="UTF-8"?>
<svg width="100px" height="100px" viewBox="0 0 22 22" version="1.1" xmlns="http://www.w3.org/2000/svg" xmlns:xlink="http://www.w3.org/1999/xlink">
    <!-- Generator: Sketch 52.2 (67145) - http://www.bohemiancoding.com/sketch -->
    <title>ANALYTICS Copy 10</title>
    <desc>Created with Sketch.</desc>
    <g id="dashboard" stroke="none" stroke-width="1" fill="none" fill-rule="evenodd">
        <g id="7B" transform="translate(2.000000, 2.000000)" fill="#1A1919">
            <path d="M8.946,5.49323077 C9.3195,5.49323077 9.621,5.79969231 9.621,6.18230769 L9.621,6.18876923 C9.621,6.57092308 9.3195,6.88107692 8.946,6.88107692 C8.5725,6.88107692 8.271,6.57092308 8.271,6.18876923 C8.271,5.80615385 8.5725,5.49323077 8.946,5.49323077 Z M8.946,7.96292308 C9.3195,7.96292308 9.621,8.27307692 9.621,8.65523077 L9.621,12.3092308 C9.621,12.6918462 9.3195,13.0015385 8.946,13.0015385 C8.5725,13.0015385 8.271,12.6918462 8.271,12.3092308 L8.271,8.65523077 C8.271,8.27307692 8.5725,7.96292308 8.946,7.96292308 Z M8.946,16.5147692 C4.914,16.5147692 1.6335,13.1506154 1.6335,9.01476923 C1.6335,4.87938462 4.914,1.51476923 8.946,1.51476923 C12.978,1.51476923 16.2585,4.87938462 16.2585,9.01476923 C16.2585,13.1506154 12.978,16.5147692 8.946,16.5147692 Z M8.946,0.130153846 C4.167,0.130153846 0.2835,4.116 0.2835,9.01476923 C0.2835,13.9135385 4.167,17.8993846 8.946,17.8993846 C13.7205,17.8993846 17.6085,13.9135385 17.6085,9.01476923 C17.6085,4.116 13.7205,0.130153846 8.946,0.130153846 Z"></path>
        </g>
    </g>
</svg>