<?xml version="1.0" encoding="UTF-8"?>
<svg width="72px" height="72px" viewBox="0 0 72 72" version="1.1" xmlns="http://www.w3.org/2000/svg" xmlns:xlink="http://www.w3.org/1999/xlink">
    <!-- Generator: Sketch 52.1 (67048) - http://www.bohemiancoding.com/sketch -->
    <title>feasibility copy 2</title>
    <desc>Created with Sketch.</desc>
    <g id="Recruiters" stroke="none" stroke-width="1" fill="none" fill-rule="evenodd">
        <g id="meditation-copy" transform="translate(1.000000, 0.000000)" fill-rule="nonzero">
            <path d="M69.1515639,33.6831801 C68.9871813,14.9190559 53.6478871,-0.159950311 34.8881535,0.00134161491 C15.9634413,0.00134161491 0.000596129032,15.0810932 0.000596129032,33.6833292 L0.000596129032,43.2311553 L14.3076929,43.2311553 L14.3076929,61.119354 L36.9617884,61.119354 L36.9617884,71.8522733 L69.1515639,71.8522733 L69.1515639,33.6831801 Z" id="Shape" fill="#0074E4"></path>
            <path d="M39.5133697,6.44467081 C49.5019587,16.2569441 50.1843774,23.6236025 39.5133697,33.8732422 C29.5247806,24.0609689 28.842511,16.6949068 39.5133697,6.44467081 Z" id="Shape" fill="#FFFFFF" opacity="0.600000024"></path>
            <path d="M21.4724187,14.2846211 C35.4720619,14.1582112 41.1624116,18.8847205 40.8627077,33.6796025 C26.8630645,33.8058634 21.1731619,29.0799503 21.4724187,14.2846211 Z" id="Shape" fill="#072A44"></path>
            <path d="M11.9231768,34.8833292 C8.63239548,34.8794534 5.96576129,32.2121739 5.96188645,28.9205963 L8.34640258,28.9205963 C8.34640258,30.8964969 9.94775419,32.498236 11.9231768,32.498236 C13.8985994,32.498236 15.499951,30.8964969 15.499951,28.9205963 L17.8844671,28.9205963 C17.8805923,32.2120248 15.2139581,34.8794534 11.9231768,34.8833292 Z" id="Shape" fill="#FFFFFF"></path>
            <path d="M58.7465787,14.2846211 C58.8729581,28.2876522 54.1475923,33.9793789 39.3562897,33.6796025 C39.2299103,19.6764224 43.954829,13.9851429 58.7465787,14.2846211 Z" id="Shape" fill="#18BAEB"></path>
        </g>
    </g>
</svg>