<svg id="svg" version="1.1" width="400" height="273.24364723467863" viewBox="0 0 400 273.24364723467863" xmlns="http://www.w3.org/2000/svg" xmlns:xlink="http://www.w3.org/1999/xlink" ><g id="svgg"><path id="path0" d="M106.767 3.611 C 105.414 3.737,103.260 3.908,101.982 3.990 C 100.704 4.072,99.541 4.254,99.398 4.394 C 99.256 4.534,98.309 4.648,97.296 4.648 C 96.282 4.648,95.377 4.771,95.284 4.921 C 95.191 5.072,94.531 5.195,93.818 5.195 C 93.106 5.195,92.405 5.306,92.262 5.443 C 92.120 5.580,91.388 5.746,90.636 5.813 C 89.884 5.880,88.592 6.148,87.765 6.409 C 86.938 6.670,85.799 6.947,85.234 7.025 C 84.669 7.103,84.139 7.276,84.056 7.411 C 83.973 7.545,83.420 7.656,82.827 7.656 C 82.235 7.656,81.750 7.779,81.750 7.929 C 81.750 8.079,81.388 8.202,80.946 8.202 C 80.503 8.202,80.066 8.325,79.973 8.476 C 79.880 8.626,79.511 8.749,79.152 8.749 C 78.794 8.749,78.425 8.872,78.332 9.023 C 78.239 9.173,77.929 9.296,77.642 9.296 C 77.171 9.296,75.832 9.788,74.577 10.423 C 74.315 10.555,73.861 10.663,73.567 10.663 C 73.273 10.663,72.957 10.786,72.864 10.936 C 72.771 11.087,72.456 11.210,72.164 11.210 C 71.872 11.210,71.634 11.333,71.634 11.483 C 71.634 11.634,71.386 11.757,71.083 11.757 C 70.780 11.757,70.319 11.875,70.058 12.019 C 69.032 12.587,66.506 13.671,66.207 13.671 C 66.034 13.671,65.892 13.794,65.892 13.944 C 65.892 14.094,65.730 14.217,65.532 14.217 C 64.991 14.217,56.382 18.677,54.913 19.718 C 54.514 20.001,54.053 20.232,53.888 20.232 C 53.723 20.232,53.589 20.355,53.589 20.506 C 53.589 20.656,53.342 20.779,53.042 20.779 C 52.741 20.779,52.495 20.902,52.495 21.053 C 52.495 21.203,52.310 21.326,52.085 21.326 C 51.859 21.326,51.675 21.449,51.675 21.599 C 51.675 21.750,51.512 21.873,51.312 21.873 C 51.113 21.873,50.661 22.180,50.308 22.556 C 49.954 22.932,49.513 23.240,49.326 23.240 C 49.139 23.240,48.945 23.334,48.895 23.450 C 48.845 23.566,47.943 24.270,46.890 25.016 C 45.101 26.283,44.410 26.807,43.647 27.478 C 43.476 27.628,42.843 28.114,42.242 28.557 C 41.640 29.001,40.949 29.585,40.706 29.856 C 40.463 30.127,40.133 30.349,39.972 30.349 C 39.811 30.349,38.680 31.333,37.457 32.536 C 36.235 33.739,35.122 34.723,34.985 34.723 C 34.565 34.723,27.888 41.566,27.888 41.997 C 27.888 42.336,27.050 42.947,26.799 42.792 C 26.642 42.695,26.596 42.803,26.690 43.048 C 26.779 43.281,26.725 43.472,26.569 43.472 C 26.412 43.472,26.209 43.709,26.117 43.998 C 26.025 44.288,25.464 45.026,24.869 45.639 C 24.274 46.252,23.787 46.814,23.787 46.888 C 23.787 47.006,23.148 47.805,22.283 48.772 C 22.133 48.940,21.835 49.416,21.622 49.829 C 21.408 50.243,21.131 50.581,21.006 50.581 C 20.881 50.581,20.779 50.766,20.779 50.991 C 20.779 51.217,20.656 51.401,20.506 51.401 C 20.355 51.401,20.232 51.558,20.232 51.751 C 20.232 52.226,19.241 53.041,18.657 53.046 C 18.250 53.049,18.241 53.088,18.592 53.315 C 18.865 53.492,18.888 53.582,18.660 53.584 C 18.472 53.587,18.317 53.865,18.314 54.204 C 18.311 54.701,18.259 54.740,18.045 54.409 C 17.849 54.105,17.779 54.273,17.776 55.057 C 17.772 55.996,17.722 56.075,17.335 55.754 C 16.953 55.437,16.910 55.475,16.993 56.062 C 17.053 56.487,16.964 56.708,16.750 56.666 C 16.547 56.625,16.438 56.845,16.476 57.212 C 16.520 57.628,16.401 57.817,16.108 57.796 C 15.795 57.774,15.709 57.945,15.798 58.411 C 15.868 58.778,15.790 59.057,15.616 59.057 C 15.448 59.057,15.311 59.303,15.311 59.604 C 15.311 59.904,15.188 60.150,15.038 60.150 C 14.887 60.150,14.764 60.396,14.764 60.697 C 14.764 60.998,14.641 61.244,14.491 61.244 C 14.340 61.244,14.217 61.490,14.217 61.791 C 14.217 62.092,14.094 62.338,13.944 62.338 C 13.794 62.338,13.671 62.584,13.671 62.884 C 13.671 63.185,13.548 63.431,13.397 63.431 C 13.247 63.431,13.124 63.597,13.124 63.799 C 13.124 64.348,12.302 65.892,12.010 65.892 C 11.871 65.892,11.757 66.138,11.757 66.439 C 11.757 66.740,11.634 66.986,11.483 66.986 C 11.333 66.986,11.210 67.293,11.210 67.669 C 11.210 68.045,11.087 68.353,10.936 68.353 C 10.786 68.353,10.663 68.599,10.663 68.900 C 10.663 69.203,10.481 69.446,10.253 69.446 C 10.025 69.446,9.843 69.689,9.843 69.993 C 9.843 70.294,9.720 70.540,9.569 70.540 C 9.419 70.540,9.296 70.848,9.296 71.224 C 9.296 71.599,9.181 71.907,9.041 71.907 C 8.900 71.907,8.747 72.245,8.699 72.659 C 8.649 73.089,8.464 73.381,8.265 73.341 C 8.023 73.292,7.970 73.479,8.090 73.956 C 8.224 74.490,8.157 74.641,7.788 74.641 C 7.410 74.641,7.346 74.803,7.473 75.437 C 7.584 75.993,7.512 76.278,7.234 76.385 C 7.015 76.469,6.835 76.799,6.835 77.118 C 6.835 77.437,6.558 77.929,6.220 78.211 C 5.882 78.493,5.759 78.728,5.947 78.733 C 6.349 78.744,6.417 79.563,6.015 79.563 C 5.865 79.563,5.742 80.062,5.742 80.672 C 5.742 81.343,5.633 81.715,5.468 81.613 C 5.303 81.511,5.195 81.884,5.195 82.554 C 5.195 83.164,5.072 83.664,4.921 83.664 C 4.771 83.664,4.648 84.231,4.648 84.923 C 4.648 85.931,4.566 86.151,4.238 86.026 C 3.811 85.862,3.716 86.282,3.823 87.864 C 3.859 88.396,3.774 88.584,3.559 88.451 C 3.329 88.309,3.266 88.759,3.326 90.108 C 3.384 91.397,3.307 91.994,3.072 92.072 C 2.842 92.149,2.734 92.875,2.734 94.350 C 2.734 95.610,2.620 96.514,2.461 96.514 C 2.296 96.514,2.187 97.646,2.187 99.362 C 2.187 101.070,2.075 102.248,1.906 102.304 C 1.733 102.361,1.620 103.791,1.613 106.018 C 1.603 108.965,1.528 109.638,1.210 109.638 C 0.886 109.638,0.814 110.634,0.784 115.584 C 0.762 119.192,0.664 121.155,0.533 120.574 C 0.415 120.048,0.302 126.077,0.283 133.971 C 0.264 141.866,0.189 176.487,0.115 210.908 L -0.018 273.490 4.297 273.251 C 6.671 273.120,13.704 273.052,19.927 273.101 C 29.184 273.174,31.282 273.123,31.468 272.822 C 31.651 272.526,33.121 272.465,38.951 272.510 L 46.206 272.566 46.206 271.446 C 46.206 270.701,46.366 270.206,46.685 269.964 C 47.141 269.618,47.141 269.600,46.685 269.592 C 46.088 269.581,45.977 265.300,46.548 264.302 C 46.815 263.836,46.890 258.277,46.890 239.072 C 46.890 219.554,46.962 214.353,47.237 214.021 C 47.514 213.686,47.570 208.502,47.511 188.593 C 47.451 168.314,47.504 163.503,47.794 163.153 C 48.084 162.804,48.136 158.658,48.068 141.417 C 48.002 124.738,48.057 120.024,48.323 119.703 C 48.580 119.393,48.647 117.456,48.597 111.822 C 48.545 106.042,48.608 104.327,48.872 104.238 C 49.122 104.155,49.214 103.169,49.214 100.563 C 49.214 97.431,49.266 97.022,49.646 97.168 C 50.023 97.313,50.054 97.111,49.887 95.557 C 49.721 94.000,49.754 93.780,50.156 93.780 C 50.544 93.780,50.586 93.592,50.430 92.553 C 50.284 91.574,50.333 91.292,50.675 91.161 C 50.980 91.044,51.060 90.776,50.952 90.234 C 50.867 89.809,50.932 89.389,51.100 89.286 C 51.266 89.183,51.401 88.857,51.401 88.560 C 51.401 88.264,51.586 87.950,51.811 87.864 C 52.037 87.777,52.221 87.399,52.221 87.023 C 52.221 86.563,52.342 86.385,52.589 86.480 C 52.845 86.579,52.922 86.441,52.842 86.024 C 52.772 85.655,52.976 85.160,53.378 84.726 C 53.735 84.340,53.980 83.882,53.922 83.708 C 53.864 83.533,54.011 83.316,54.249 83.224 C 54.487 83.133,54.682 82.825,54.682 82.541 C 54.682 82.256,54.805 82.023,54.956 82.023 C 55.106 82.023,55.229 81.839,55.229 81.613 C 55.229 81.388,55.352 81.203,55.502 81.203 C 55.653 81.203,55.776 81.042,55.776 80.844 C 55.776 80.647,56.022 80.222,56.323 79.899 C 56.623 79.576,56.869 79.202,56.869 79.067 C 56.869 78.932,57.177 78.490,57.553 78.085 C 57.929 77.679,58.237 77.261,58.237 77.156 C 58.237 77.051,58.559 76.596,58.951 76.145 C 59.344 75.694,59.867 75.017,60.113 74.641 C 60.963 73.343,61.651 72.579,64.791 69.444 C 68.790 65.451,71.098 63.344,72.162 62.715 C 72.623 62.443,73.001 62.123,73.001 62.005 C 73.001 61.887,73.133 61.791,73.294 61.791 C 73.455 61.791,73.746 61.637,73.941 61.449 C 74.581 60.832,75.628 60.020,76.234 59.672 C 76.561 59.484,77.099 59.176,77.430 58.988 C 77.761 58.800,78.331 58.382,78.698 58.058 C 79.383 57.452,79.873 57.179,81.408 56.552 C 81.897 56.353,82.297 56.096,82.297 55.982 C 82.297 55.869,82.532 55.776,82.821 55.776 C 83.109 55.776,83.386 55.684,83.436 55.571 C 83.596 55.210,85.296 54.372,85.549 54.528 C 85.684 54.611,85.870 54.481,85.962 54.239 C 86.067 53.967,86.331 53.852,86.657 53.937 C 86.959 54.017,87.245 53.914,87.329 53.695 C 87.409 53.486,87.786 53.315,88.166 53.315 C 88.547 53.315,88.859 53.178,88.859 53.010 C 88.859 52.832,89.143 52.759,89.542 52.835 C 90.000 52.923,90.226 52.843,90.226 52.594 C 90.226 52.351,90.557 52.221,91.183 52.221 C 91.709 52.221,92.139 52.098,92.139 51.948 C 92.139 51.798,92.570 51.675,93.096 51.675 C 93.623 51.675,94.053 51.552,94.053 51.401 C 94.053 51.251,94.532 51.128,95.118 51.128 C 95.803 51.128,96.237 50.984,96.337 50.725 C 96.463 50.397,96.897 50.354,98.704 50.494 C 100.485 50.631,100.900 50.592,100.834 50.294 C 100.628 49.369,122.411 49.119,123.129 50.039 C 123.362 50.338,123.894 50.423,125.157 50.363 C 126.503 50.299,126.904 50.372,127.032 50.705 C 127.140 50.986,127.550 51.128,128.259 51.128 C 128.844 51.128,129.323 51.251,129.323 51.401 C 129.323 51.552,129.692 51.675,130.144 51.675 C 130.595 51.675,130.964 51.798,130.964 51.948 C 130.964 52.098,131.394 52.221,131.921 52.221 C 132.605 52.221,132.878 52.343,132.878 52.648 C 132.878 52.882,133.002 52.997,133.155 52.903 C 133.555 52.655,135.650 53.642,135.508 54.012 C 135.433 54.208,135.621 54.279,136.015 54.204 C 136.359 54.138,136.725 54.218,136.826 54.383 C 136.928 54.548,137.250 54.682,137.542 54.682 C 137.834 54.682,138.072 54.805,138.072 54.956 C 138.072 55.106,138.380 55.229,138.756 55.229 C 139.132 55.229,139.440 55.352,139.440 55.502 C 139.440 55.653,139.686 55.776,139.986 55.776 C 140.287 55.776,140.533 55.899,140.533 56.049 C 140.533 56.200,140.766 56.323,141.051 56.323 C 141.335 56.323,141.638 56.505,141.724 56.728 C 141.812 56.958,142.061 57.064,142.298 56.973 C 142.542 56.879,142.786 56.995,142.884 57.251 C 142.977 57.492,143.285 57.690,143.570 57.690 C 143.855 57.690,144.087 57.813,144.087 57.963 C 144.087 58.113,144.248 58.237,144.443 58.237 C 144.946 58.237,146.270 58.880,146.273 59.125 C 146.274 59.238,146.459 59.330,146.685 59.330 C 146.910 59.330,147.095 59.430,147.095 59.553 C 147.095 59.675,147.526 59.981,148.052 60.232 C 148.578 60.483,149.009 60.813,149.009 60.966 C 149.009 61.119,149.170 61.244,149.367 61.244 C 149.565 61.244,149.990 61.490,150.313 61.791 C 150.636 62.092,151.028 62.338,151.185 62.338 C 151.341 62.338,151.470 62.461,151.470 62.611 C 151.470 62.761,151.654 62.884,151.880 62.884 C 152.105 62.884,152.291 62.977,152.292 63.090 C 152.293 63.202,152.750 63.602,153.308 63.978 C 155.390 65.380,160.471 70.346,162.195 72.664 C 162.836 73.526,163.422 74.293,163.499 74.368 C 163.575 74.443,163.812 74.843,164.025 75.256 C 164.238 75.670,164.515 76.008,164.640 76.008 C 164.764 76.008,164.867 76.193,164.867 76.418 C 164.867 76.644,164.990 76.828,165.140 76.828 C 165.290 76.828,165.414 77.007,165.414 77.225 C 165.414 77.443,165.567 77.720,165.755 77.840 C 165.943 77.960,166.251 78.336,166.439 78.674 C 167.286 80.199,167.493 80.524,167.932 81.024 C 168.190 81.318,168.620 82.092,168.889 82.746 C 169.158 83.400,169.470 83.936,169.583 83.936 C 169.696 83.937,169.788 84.176,169.788 84.468 C 169.788 84.760,169.911 85.075,170.062 85.167 C 170.212 85.260,170.335 85.575,170.335 85.867 C 170.335 86.159,170.458 86.398,170.608 86.398 C 170.759 86.398,170.882 86.644,170.882 86.945 C 170.882 87.245,171.005 87.491,171.155 87.491 C 171.306 87.491,171.429 87.746,171.429 88.058 C 171.429 88.369,171.620 88.816,171.854 89.050 C 172.089 89.284,172.216 89.645,172.136 89.851 C 172.057 90.057,172.103 90.226,172.237 90.226 C 172.586 90.226,173.342 91.833,173.342 92.575 C 173.342 92.919,173.465 93.277,173.616 93.370 C 173.766 93.463,173.889 93.901,173.889 94.343 C 173.889 94.785,174.012 95.147,174.163 95.147 C 174.313 95.147,174.436 95.755,174.436 96.498 C 174.436 97.241,174.559 97.925,174.710 98.018 C 174.860 98.111,174.983 98.907,174.983 99.788 C 174.983 100.826,175.103 101.430,175.325 101.505 C 175.582 101.592,175.651 102.650,175.604 105.779 C 175.567 108.211,175.644 109.873,175.789 109.783 C 176.289 109.474,176.423 112.964,176.232 121.289 C 176.060 128.785,176.090 129.973,176.481 131.124 C 176.886 132.318,176.908 135.331,176.731 165.063 C 176.550 195.400,176.568 197.680,176.990 197.518 C 177.411 197.357,177.444 200.054,177.444 235.377 L 177.444 273.411 200.137 273.411 L 222.830 273.411 222.830 270.677 C 222.830 269.036,222.939 267.943,223.103 267.943 C 223.254 267.943,223.375 267.727,223.372 267.464 C 223.369 267.081,223.320 267.062,223.127 267.367 C 222.715 268.018,222.631 265.150,222.663 251.460 C 222.688 240.511,222.756 238.355,223.080 238.155 C 223.412 237.950,223.442 232.889,223.291 202.553 C 223.120 168.232,223.214 157.898,223.692 158.194 C 223.819 158.273,223.922 158.053,223.919 157.706 C 223.916 157.198,223.863 157.155,223.650 157.485 C 223.491 157.731,223.383 157.765,223.381 157.569 C 223.379 157.390,223.507 157.163,223.666 157.065 C 223.868 156.940,223.897 151.257,223.762 138.252 C 223.575 120.141,223.678 115.196,224.238 115.541 C 224.410 115.648,224.475 113.637,224.420 109.893 C 224.353 105.424,224.413 104.053,224.675 103.965 C 224.920 103.883,225.017 103.038,225.017 101.003 C 225.017 98.485,225.270 97.471,225.643 98.496 C 225.711 98.684,225.704 98.008,225.628 96.992 C 225.518 95.530,225.568 95.147,225.870 95.147 C 226.154 95.147,226.226 94.833,226.154 93.917 C 226.082 93.013,226.155 92.686,226.428 92.686 C 226.665 92.686,226.799 92.366,226.797 91.798 C 226.795 91.189,226.912 90.934,227.168 90.988 C 227.439 91.045,227.496 90.880,227.373 90.393 C 227.266 89.964,227.354 89.569,227.614 89.308 C 227.840 89.082,228.025 88.704,228.025 88.468 C 228.025 88.232,228.148 88.038,228.298 88.038 C 228.448 88.038,228.571 87.718,228.571 87.325 C 228.571 86.802,228.681 86.655,228.985 86.771 C 229.309 86.896,229.362 86.784,229.229 86.254 C 229.099 85.736,229.166 85.578,229.517 85.578 C 229.851 85.578,229.928 85.429,229.802 85.031 C 229.679 84.643,229.753 84.484,230.057 84.484 C 230.303 84.484,230.485 84.251,230.485 83.937 C 230.485 83.636,230.608 83.390,230.759 83.390 C 230.909 83.390,231.032 83.151,231.032 82.860 C 231.032 82.568,231.155 82.253,231.306 82.160 C 231.456 82.067,231.579 81.752,231.579 81.460 C 231.579 80.866,231.996 80.746,232.237 81.271 C 232.323 81.459,232.326 81.339,232.244 81.004 C 232.146 80.608,232.290 80.184,232.656 79.791 C 232.966 79.458,233.219 79.038,233.219 78.857 C 233.219 78.676,233.404 78.457,233.630 78.370 C 233.855 78.283,234.040 78.024,234.040 77.794 C 234.040 77.564,234.163 77.375,234.313 77.375 C 234.463 77.375,234.586 77.191,234.586 76.965 C 234.586 76.740,234.710 76.555,234.860 76.555 C 235.010 76.555,235.133 76.370,235.133 76.145 C 235.133 75.919,235.256 75.735,235.407 75.735 C 235.557 75.735,235.680 75.595,235.680 75.425 C 235.680 75.255,235.902 74.916,236.173 74.673 C 236.444 74.430,237.028 73.739,237.471 73.137 C 239.127 70.892,246.392 63.995,247.984 63.158 C 248.360 62.960,248.866 62.572,249.109 62.295 C 249.353 62.018,249.690 61.791,249.859 61.791 C 250.028 61.791,250.485 61.514,250.874 61.176 C 251.263 60.837,251.638 60.596,251.706 60.639 C 251.775 60.682,252.007 60.559,252.222 60.365 C 252.910 59.746,253.298 59.476,254.067 59.079 C 254.481 58.866,254.819 58.589,254.819 58.464 C 254.819 58.339,255.065 58.237,255.366 58.237 C 255.666 58.237,255.913 58.122,255.913 57.983 C 255.913 57.663,257.547 56.833,257.831 57.009 C 257.947 57.081,258.118 56.942,258.211 56.700 C 258.318 56.422,258.579 56.313,258.923 56.403 C 259.275 56.495,259.467 56.409,259.467 56.160 C 259.467 55.949,259.713 55.776,260.014 55.776 C 260.314 55.776,260.560 55.653,260.560 55.502 C 260.560 55.352,260.754 55.229,260.990 55.229 C 261.226 55.229,261.605 55.043,261.832 54.816 C 262.059 54.589,262.366 54.478,262.514 54.570 C 262.661 54.661,263.012 54.528,263.292 54.274 C 263.615 53.982,264.011 53.879,264.369 53.992 C 264.777 54.122,264.935 54.053,264.935 53.744 C 264.935 53.472,265.179 53.315,265.602 53.315 C 265.970 53.315,266.346 53.192,266.439 53.042 C 266.532 52.891,266.908 52.768,267.275 52.768 C 267.642 52.768,267.943 52.645,267.943 52.495 C 267.943 52.344,268.435 52.221,269.036 52.221 C 269.638 52.221,270.130 52.098,270.130 51.948 C 270.130 51.798,270.569 51.675,271.106 51.675 C 271.643 51.675,272.276 51.481,272.513 51.245 C 272.786 50.972,273.182 50.875,273.598 50.979 C 274.019 51.085,274.412 50.986,274.697 50.701 C 275.024 50.374,275.430 50.300,276.257 50.419 C 278.069 50.679,278.988 50.591,279.245 50.133 C 279.453 49.760,279.956 49.729,283.020 49.900 C 285.937 50.062,286.541 50.031,286.477 49.723 C 286.414 49.428,287.082 49.334,289.679 49.271 C 293.228 49.186,294.579 49.347,293.902 49.775 C 293.685 49.913,293.636 50.028,293.794 50.030 C 293.951 50.032,294.198 49.927,294.340 49.796 C 294.798 49.375,299.385 49.768,299.385 50.227 C 299.385 50.553,299.702 50.591,301.158 50.435 C 302.653 50.275,302.959 50.314,303.102 50.686 C 303.229 51.017,303.640 51.128,304.746 51.128 C 305.557 51.128,306.220 51.251,306.220 51.401 C 306.220 51.552,306.774 51.675,307.450 51.675 C 308.127 51.675,308.681 51.798,308.681 51.948 C 308.681 52.098,309.050 52.221,309.501 52.221 C 310.011 52.221,310.321 52.362,310.321 52.594 C 310.321 52.838,310.544 52.923,310.973 52.841 C 311.331 52.773,311.707 52.851,311.809 53.016 C 311.911 53.180,312.193 53.315,312.436 53.315 C 313.022 53.315,317.157 55.280,317.157 55.559 C 317.157 55.678,317.350 55.776,317.586 55.776 C 317.822 55.776,318.551 56.145,319.207 56.596 C 319.863 57.047,320.518 57.416,320.663 57.416 C 320.807 57.416,320.997 57.601,321.083 57.826 C 321.170 58.052,321.429 58.237,321.659 58.237 C 321.890 58.237,322.078 58.360,322.078 58.510 C 322.078 58.660,322.262 58.783,322.488 58.783 C 322.714 58.783,322.898 58.886,322.898 59.011 C 322.898 59.135,323.237 59.411,323.650 59.622 C 324.064 59.833,324.794 60.408,325.272 60.898 C 325.751 61.389,326.276 61.791,326.440 61.791 C 326.604 61.791,327.442 62.466,328.304 63.291 C 329.165 64.116,329.963 64.793,330.078 64.795 C 330.873 64.809,339.842 74.200,341.419 76.670 C 341.795 77.260,342.334 77.991,342.617 78.294 C 342.899 78.597,343.131 79.007,343.131 79.204 C 343.131 79.401,343.233 79.563,343.358 79.563 C 343.483 79.563,343.759 79.901,343.972 80.314 C 344.185 80.728,344.759 81.635,345.249 82.329 C 345.738 83.024,346.138 83.731,346.138 83.901 C 346.138 84.071,346.261 84.211,346.411 84.211 C 346.562 84.211,346.685 84.457,346.685 84.757 C 346.685 85.058,346.808 85.304,346.958 85.304 C 347.109 85.304,347.232 85.535,347.232 85.818 C 347.232 86.100,347.409 86.478,347.626 86.658 C 347.842 86.838,347.958 87.144,347.883 87.339 C 347.808 87.535,347.939 87.768,348.173 87.858 C 348.407 87.948,348.599 88.264,348.599 88.560 C 348.599 88.857,348.722 89.176,348.872 89.269 C 349.023 89.362,349.146 89.731,349.146 90.089 C 349.146 90.447,349.269 90.816,349.419 90.909 C 349.569 91.002,349.692 91.501,349.692 92.019 C 349.692 92.536,349.815 92.960,349.966 92.960 C 350.116 92.960,350.239 93.584,350.239 94.346 C 350.239 95.235,350.392 95.885,350.663 96.157 C 351.016 96.510,351.055 97.019,350.896 99.186 C 350.754 101.118,350.786 101.741,351.019 101.597 C 351.408 101.357,351.452 102.164,351.344 107.557 C 351.287 110.387,351.351 111.573,351.553 111.448 C 352.123 111.095,352.230 113.929,352.092 125.711 C 352.015 132.238,352.046 137.426,352.160 137.240 C 352.648 136.451,352.762 144.209,352.572 165.347 C 352.403 184.092,352.431 187.920,352.740 188.292 C 353.047 188.663,353.093 193.311,353.009 215.696 C 352.953 230.522,352.977 242.588,353.061 242.509 C 353.145 242.431,353.241 241.595,353.275 240.652 C 353.310 239.709,353.440 238.874,353.565 238.796 C 353.691 238.719,353.794 246.291,353.794 255.623 L 353.794 272.591 376.618 272.591 L 399.443 272.591 399.517 258.578 C 399.685 226.445,399.572 145.823,399.359 145.318 C 399.178 144.889,399.192 144.860,399.423 145.181 C 399.668 145.521,399.719 145.483,399.722 144.960 C 399.725 144.608,399.606 144.403,399.453 144.498 C 399.060 144.740,399.084 134.450,399.477 134.057 C 399.691 133.843,399.691 133.708,399.477 133.576 C 399.271 133.449,399.178 130.017,399.176 122.404 C 399.173 115.208,399.080 111.556,398.906 111.825 C 398.691 112.158,398.449 105.208,398.593 102.802 C 398.609 102.527,398.567 102.505,398.466 102.734 C 398.102 103.555,397.813 102.946,397.817 101.367 C 397.820 100.163,397.899 99.779,398.086 100.068 C 398.245 100.315,398.353 100.348,398.355 100.153 C 398.358 99.974,398.237 99.751,398.086 99.658 C 397.936 99.565,397.813 98.943,397.813 98.275 C 397.813 97.607,397.690 97.061,397.539 97.061 C 397.385 97.061,397.262 96.258,397.257 95.215 C 397.252 94.089,397.103 93.178,396.874 92.876 C 396.610 92.528,396.544 91.904,396.648 90.757 C 396.749 89.638,396.698 89.132,396.484 89.132 C 396.297 89.132,396.172 88.640,396.172 87.902 C 396.172 87.063,396.063 86.693,395.830 86.740 C 395.584 86.789,395.501 86.353,395.535 85.167 C 395.560 84.265,395.520 83.804,395.447 84.142 C 395.220 85.190,394.807 84.819,394.854 83.611 C 394.880 82.941,394.766 82.420,394.579 82.358 C 394.403 82.299,394.258 82.070,394.258 81.848 C 394.258 81.626,394.390 81.526,394.552 81.626 C 394.890 81.835,394.246 80.609,393.877 80.342 C 393.742 80.244,393.706 79.971,393.797 79.735 C 393.888 79.498,393.782 79.126,393.563 78.906 C 393.344 78.687,393.165 78.123,393.165 77.652 C 393.165 77.151,393.051 76.866,392.891 76.965 C 392.736 77.061,392.618 76.831,392.618 76.434 C 392.618 75.995,392.465 75.735,392.208 75.735 C 391.934 75.735,391.798 75.461,391.798 74.915 C 391.798 74.463,391.675 74.094,391.524 74.094 C 391.374 74.094,391.239 73.510,391.224 72.796 C 391.201 71.737,391.156 71.623,390.977 72.180 C 390.770 72.828,390.757 72.817,390.731 71.975 C 390.716 71.487,390.576 71.087,390.419 71.087 C 390.262 71.087,390.153 70.933,390.178 70.745 C 390.268 70.050,390.150 69.692,389.884 69.856 C 389.725 69.955,389.610 69.680,389.610 69.198 C 389.610 68.562,389.512 68.408,389.186 68.533 C 388.845 68.663,388.798 68.554,388.943 67.974 C 389.091 67.384,389.044 67.284,388.684 67.422 C 388.348 67.551,388.243 67.421,388.243 66.878 C 388.243 66.486,388.120 66.165,387.970 66.165 C 387.820 66.165,387.697 65.919,387.697 65.619 C 387.697 65.318,387.559 65.072,387.391 65.072 C 387.213 65.072,387.140 64.787,387.217 64.388 C 387.304 63.930,387.225 63.705,386.975 63.705 C 386.770 63.705,386.603 63.459,386.603 63.158 C 386.603 62.842,386.421 62.611,386.171 62.611 C 385.834 62.611,385.773 62.415,385.894 61.722 C 385.980 61.234,385.979 60.988,385.893 61.176 C 385.628 61.757,385.236 61.553,385.236 60.834 C 385.236 60.458,385.113 60.150,384.962 60.150 C 384.812 60.150,384.689 59.904,384.689 59.604 C 384.689 59.303,384.566 59.057,384.416 59.057 C 384.265 59.057,384.142 58.811,384.142 58.510 C 384.142 58.209,384.019 57.963,383.869 57.963 C 383.718 57.963,383.595 57.708,383.595 57.397 C 383.595 56.791,383.004 56.049,382.521 56.049 C 382.360 56.049,382.228 55.803,382.228 55.502 C 382.228 55.202,382.105 54.956,381.955 54.956 C 381.805 54.956,381.681 54.771,381.681 54.545 C 381.681 54.320,381.558 54.135,381.408 54.135 C 381.258 54.135,381.135 53.889,381.135 53.589 C 381.135 53.288,381.031 53.042,380.904 53.042 C 380.778 53.042,380.442 52.611,380.159 52.085 C 379.875 51.558,379.534 51.128,379.400 51.128 C 379.266 51.128,379.221 50.882,379.300 50.581 C 379.379 50.280,379.326 50.034,379.183 50.034 C 378.910 50.034,377.580 48.799,377.580 48.545 C 377.580 48.390,376.720 47.337,375.803 46.369 C 375.502 46.052,374.890 45.301,374.442 44.701 C 373.995 44.100,372.760 42.748,371.699 41.695 C 370.638 40.643,369.473 39.351,369.111 38.824 C 368.749 38.298,367.677 37.082,366.728 36.123 C 365.780 35.164,365.003 34.272,365.003 34.141 C 365.003 34.010,364.872 33.903,364.710 33.903 C 364.258 33.903,363.581 33.120,363.770 32.815 C 363.862 32.665,363.775 32.605,363.576 32.681 C 363.377 32.757,362.756 32.387,362.195 31.858 C 361.633 31.328,361.038 30.895,360.872 30.895 C 360.706 30.895,360.644 30.704,360.733 30.471 C 360.836 30.204,360.784 30.116,360.595 30.233 C 360.430 30.335,360.216 30.310,360.120 30.177 C 360.024 30.044,359.515 29.610,358.988 29.213 C 358.462 28.816,357.760 28.232,357.428 27.916 C 357.096 27.600,356.690 27.341,356.527 27.341 C 356.363 27.341,355.951 27.064,355.611 26.726 C 355.271 26.388,354.540 25.803,353.985 25.427 C 353.431 25.051,352.976 24.651,352.975 24.539 C 352.974 24.426,352.789 24.334,352.563 24.334 C 352.338 24.334,352.153 24.211,352.153 24.060 C 352.153 23.910,351.999 23.787,351.811 23.786 C 351.623 23.786,351.137 23.509,350.731 23.171 C 349.218 21.912,348.714 21.558,347.847 21.143 C 347.358 20.908,346.958 20.608,346.958 20.475 C 346.958 20.341,346.712 20.232,346.411 20.232 C 346.111 20.232,345.864 20.140,345.863 20.027 C 345.861 19.808,345.202 19.406,342.174 17.779 C 341.121 17.214,339.479 16.304,338.525 15.757 C 337.570 15.211,336.617 14.764,336.406 14.764 C 336.195 14.764,336.022 14.641,336.022 14.491 C 336.022 14.340,335.776 14.217,335.475 14.217 C 335.174 14.217,334.928 14.094,334.928 13.944 C 334.928 13.794,334.706 13.671,334.434 13.671 C 334.162 13.671,333.700 13.490,333.408 13.269 C 333.116 13.048,332.718 12.864,332.523 12.859 C 332.327 12.854,331.658 12.604,331.036 12.303 C 330.413 12.003,329.681 11.757,329.409 11.757 C 329.136 11.757,328.913 11.634,328.913 11.483 C 328.913 11.333,328.613 11.210,328.246 11.210 C 327.879 11.210,327.502 11.087,327.409 10.936 C 327.316 10.786,326.940 10.663,326.573 10.663 C 326.206 10.663,325.906 10.540,325.906 10.390 C 325.906 10.239,325.670 10.116,325.381 10.116 C 325.092 10.116,324.447 9.911,323.946 9.660 C 322.236 8.803,322.085 8.749,321.398 8.749 C 321.020 8.749,320.711 8.626,320.711 8.476 C 320.711 8.325,320.342 8.202,319.891 8.202 C 319.440 8.202,319.070 8.079,319.070 7.929 C 319.070 7.779,318.586 7.656,317.993 7.656 C 317.400 7.656,316.839 7.532,316.746 7.382 C 316.653 7.232,316.161 7.109,315.653 7.109 C 315.144 7.109,314.654 6.989,314.564 6.843 C 314.474 6.697,313.787 6.496,313.038 6.397 C 312.289 6.298,311.610 6.110,311.529 5.979 C 311.449 5.848,310.922 5.742,310.360 5.742 C 309.797 5.742,309.220 5.629,309.077 5.492 C 308.934 5.355,308.141 5.174,307.314 5.089 C 304.375 4.790,301.701 4.440,301.162 4.286 C 300.861 4.200,299.631 4.067,298.428 3.990 C 297.225 3.914,295.441 3.721,294.463 3.563 C 292.873 3.306,281.791 3.439,281.302 3.721 C 281.206 3.777,279.607 3.893,277.748 3.979 C 275.889 4.066,274.327 4.252,274.277 4.392 C 274.226 4.533,273.359 4.648,272.349 4.648 C 271.339 4.648,270.396 4.760,270.253 4.897 C 270.110 5.034,269.316 5.210,268.489 5.288 C 265.892 5.532,260.166 6.819,259.129 7.393 C 258.868 7.537,258.352 7.656,257.983 7.656 C 257.614 7.656,257.236 7.779,257.143 7.929 C 257.050 8.079,256.619 8.202,256.186 8.202 C 255.753 8.202,255.322 8.325,255.229 8.476 C 255.136 8.626,254.820 8.749,254.526 8.749 C 254.232 8.749,253.778 8.857,253.516 8.990 C 253.255 9.122,252.365 9.447,251.538 9.711 C 250.711 9.976,249.917 10.298,249.774 10.428 C 249.632 10.557,249.293 10.663,249.023 10.663 C 248.752 10.663,248.530 10.786,248.530 10.936 C 248.530 11.087,248.283 11.210,247.980 11.210 C 247.677 11.210,247.216 11.319,246.955 11.451 C 246.693 11.584,246.172 11.816,245.796 11.966 C 245.420 12.116,244.455 12.561,243.652 12.954 C 242.849 13.348,242.018 13.671,241.807 13.671 C 241.595 13.671,241.422 13.794,241.422 13.944 C 241.422 14.094,241.114 14.217,240.738 14.217 C 240.362 14.217,240.055 14.340,240.055 14.491 C 240.055 14.641,239.809 14.764,239.508 14.764 C 239.207 14.764,238.961 14.887,238.961 15.038 C 238.961 15.188,238.715 15.311,238.414 15.311 C 238.113 15.311,237.867 15.421,237.867 15.555 C 237.867 15.689,237.560 15.876,237.184 15.970 C 236.808 16.064,236.500 16.262,236.500 16.410 C 236.500 16.557,236.254 16.678,235.954 16.678 C 235.653 16.678,235.406 16.770,235.405 16.883 C 235.403 16.996,235.127 17.221,234.789 17.384 C 233.402 18.054,231.436 19.237,231.351 19.454 C 231.301 19.581,231.086 19.686,230.873 19.686 C 230.660 19.686,230.485 19.809,230.485 19.959 C 230.485 20.109,230.324 20.232,230.127 20.232 C 229.930 20.232,229.504 20.478,229.181 20.779 C 228.858 21.080,228.405 21.326,228.173 21.326 C 227.941 21.326,227.751 21.449,227.751 21.599 C 227.751 21.750,227.589 21.873,227.391 21.873 C 227.192 21.873,226.547 22.303,225.955 22.830 C 225.364 23.356,224.727 23.786,224.539 23.787 C 224.351 23.787,224.197 23.910,224.197 24.060 C 224.197 24.211,224.068 24.334,223.911 24.334 C 223.754 24.334,223.318 24.641,222.942 25.017 C 222.566 25.393,222.146 25.701,222.009 25.701 C 221.871 25.701,221.242 26.193,220.610 26.794 C 219.977 27.396,219.295 27.888,219.094 27.888 C 218.893 27.888,218.729 28.016,218.729 28.173 C 218.729 28.330,218.575 28.439,218.387 28.414 C 217.651 28.319,217.218 28.439,217.546 28.647 C 217.942 28.899,216.490 30.573,215.379 31.147 C 214.966 31.360,214.627 31.637,214.627 31.762 C 214.627 31.887,214.374 31.989,214.065 31.989 C 213.754 31.989,213.578 32.113,213.673 32.266 C 213.842 32.539,212.404 34.069,210.981 35.130 C 210.581 35.429,210.253 35.781,210.253 35.913 C 210.253 36.203,208.323 38.004,208.012 38.004 C 207.891 38.004,207.792 38.129,207.792 38.283 C 207.792 38.436,206.716 39.654,205.400 40.990 C 204.084 42.326,202.454 44.045,201.777 44.810 C 201.100 45.575,200.471 46.202,200.378 46.204 C 199.758 46.214,187.212 33.697,187.453 33.308 C 187.576 33.108,187.521 33.074,187.298 33.212 C 187.108 33.330,186.873 33.318,186.777 33.186 C 186.681 33.054,185.988 32.457,185.236 31.860 C 184.484 31.262,183.561 30.457,183.185 30.071 C 182.809 29.685,182.010 29.006,181.408 28.563 C 180.807 28.120,180.115 27.541,179.872 27.276 C 179.629 27.011,179.291 26.794,179.120 26.794 C 178.950 26.794,178.811 26.671,178.811 26.521 C 178.811 26.370,178.653 26.247,178.461 26.247 C 178.268 26.247,177.705 25.817,177.208 25.290 C 176.712 24.764,176.131 24.334,175.918 24.334 C 175.704 24.334,175.530 24.211,175.530 24.060 C 175.530 23.910,175.409 23.787,175.261 23.787 C 175.114 23.787,174.579 23.387,174.074 22.898 C 173.256 22.108,172.021 21.324,170.132 20.397 C 169.795 20.231,169.518 20.003,169.517 19.891 C 169.516 19.778,169.373 19.686,169.199 19.686 C 169.025 19.686,168.502 19.406,168.037 19.065 C 167.571 18.723,166.852 18.272,166.439 18.062 C 166.025 17.851,165.687 17.577,165.687 17.452 C 165.687 17.327,165.441 17.225,165.140 17.225 C 164.839 17.225,164.593 17.102,164.593 16.951 C 164.593 16.801,164.347 16.678,164.046 16.678 C 163.746 16.678,163.500 16.557,163.500 16.410 C 163.500 16.262,163.192 16.064,162.816 15.970 C 162.440 15.876,162.133 15.689,162.133 15.555 C 162.133 15.421,161.887 15.311,161.586 15.311 C 161.285 15.311,161.039 15.211,161.039 15.089 C 161.039 14.966,160.608 14.697,160.082 14.491 C 159.556 14.284,159.125 14.015,159.125 13.893 C 159.125 13.771,158.932 13.671,158.695 13.671 C 158.459 13.671,158.097 13.502,157.890 13.295 C 157.684 13.089,156.954 12.754,156.269 12.552 C 155.584 12.350,155.024 12.088,155.024 11.970 C 155.024 11.853,154.724 11.757,154.357 11.757 C 153.989 11.757,153.613 11.634,153.520 11.483 C 153.427 11.333,153.051 11.210,152.684 11.210 C 152.317 11.210,152.016 11.087,152.016 10.936 C 152.016 10.786,151.778 10.663,151.486 10.663 C 151.194 10.663,150.885 10.549,150.799 10.411 C 150.713 10.272,150.275 10.078,149.826 9.979 C 149.377 9.880,149.009 9.686,149.009 9.548 C 149.009 9.409,148.647 9.296,148.205 9.296 C 147.763 9.296,147.325 9.173,147.232 9.023 C 147.139 8.872,146.708 8.749,146.275 8.749 C 145.841 8.749,145.411 8.626,145.318 8.476 C 145.225 8.325,144.787 8.202,144.345 8.202 C 143.903 8.202,143.541 8.079,143.541 7.929 C 143.541 7.779,143.231 7.656,142.853 7.656 C 142.475 7.656,141.953 7.540,141.691 7.399 C 141.430 7.257,140.873 7.069,140.454 6.980 C 140.034 6.892,139.759 6.708,139.843 6.573 C 139.927 6.437,139.851 6.237,139.675 6.128 C 139.474 6.004,139.428 6.049,139.553 6.251 C 139.787 6.630,136.740 6.376,136.309 5.980 C 136.166 5.849,135.483 5.742,134.792 5.742 C 134.100 5.742,133.417 5.630,133.274 5.493 C 132.988 5.220,131.169 4.973,127.820 4.752 C 126.617 4.673,125.515 4.494,125.373 4.355 C 125.230 4.215,124.354 4.101,123.428 4.101 C 122.501 4.101,121.080 3.970,120.270 3.809 C 118.382 3.436,109.966 3.312,106.767 3.611 M176.687 199.863 C 176.687 200.390,176.743 200.605,176.812 200.342 C 176.881 200.079,176.881 199.648,176.812 199.385 C 176.743 199.122,176.687 199.337,176.687 199.863 " stroke="none" fill="#92b0d6" fill-rule="evenodd"></path></g></svg>