<?xml version="1.0" encoding="UTF-8"?>
<svg width="20px" height="20px" viewBox="0 0 20 20" version="1.1" xmlns="http://www.w3.org/2000/svg" xmlns:xlink="http://www.w3.org/1999/xlink">
    <!-- Generator: Sketch 52.5 (67469) - http://www.bohemiancoding.com/sketch -->
    <title>Group 6 Copy 2</title>
    <desc>Created with Sketch.</desc>
    <defs>
        <polygon id="path-1" points="1.48148148e-05 0 20 0 20 20 1.48148148e-05 20"></polygon>
    </defs>
    <g id="Page-1" stroke="none" stroke-width="1" fill="none" fill-rule="evenodd">
        <g id="Consent-sign/over-18" transform="translate(-1193.000000, -813.000000)">
            <g id="Group-15" transform="translate(1073.000000, 813.000000)">
                <g id="Group-6-Copy-2" transform="translate(120.000000, 0.000000)">
                    <g id="Group-3">
                        <mask id="mask-2" fill="white">
                            <use xlink:href="#path-1"></use>
                        </mask>
                        <g id="Clip-2"></g>
                        <path d="M18.3912741,20 L1.60875556,20 C0.720311111,20 1.48148148e-05,19.2798519 1.48148148e-05,18.3914074 L1.48148148e-05,1.60859259 C1.48148148e-05,0.720148148 0.720311111,0 1.60875556,0 L18.3912741,0 C19.2797185,0 20.0000148,0.720148148 20.0000148,1.60859259 L20.0000148,18.3914074 C20.0000148,19.2798519 19.2797185,20 18.3912741,20" id="Fill-1" fill="#00A550" mask="url(#mask-2)"></path>
                    </g>
                    <polyline id="Stroke-4" stroke="#FEFEFE" stroke-width="2" stroke-linecap="round" points="4.74576271 9.32256852 8.56395386 13.220339 14.9152542 6.77966102"></polyline>
                </g>
            </g>
        </g>
    </g>
</svg>